<mxfile host="Electron" modified="2023-10-14T16:33:10.906Z" agent="Mozilla/5.0 (Windows NT 10.0; Win64; x64) AppleWebKit/537.36 (KHTML, like Gecko) draw.io/22.0.2 Chrome/114.0.5735.289 Electron/25.8.4 Safari/537.36" etag="VcYXRkOtlJCre6V-kZNJ" version="22.0.2" type="device" pages="3">
  <diagram id="326YfQ6A8uz0iwaCt7I8" name="BPMN AS-IS">
    <mxGraphModel dx="2243" dy="1989" grid="1" gridSize="10" guides="1" tooltips="1" connect="1" arrows="1" fold="1" page="1" pageScale="1" pageWidth="827" pageHeight="1169" math="0" shadow="0">
      <root>
        <mxCell id="0" />
        <mxCell id="1" parent="0" />
        <mxCell id="_fkPrWMEkgT71YqrRsoF-1" value="&lt;h1&gt;&lt;font style=&quot;font-size: 40px;&quot;&gt;Задание&lt;/font&gt;&lt;/h1&gt;&lt;font style=&quot;font-size: 20px;&quot;&gt;Составьте диаграмму текущего бизнес-процесса AS-IS в формате BPMN на основе представленного описания&lt;br&gt;&lt;/font&gt;&lt;p style=&quot;font-size: 20px;&quot;&gt;&lt;font style=&quot;font-size: 20px;&quot;&gt;Как выполнить задание:&lt;/font&gt;&lt;/p&gt;&lt;p style=&quot;font-size: 20px;&quot;&gt;&lt;font style=&quot;font-size: 20px;&quot;&gt;1. Проанализируйте часть представленную диаграмму AS-IS в нотации BPMN, которая была составлена на основании интервью с администратором и пациентом. Однако в диаграмме отсутствует часть посещения врача пациентом.&amp;nbsp;&lt;/font&gt;&lt;/p&gt;&lt;p style=&quot;font-size: 20px;&quot;&gt;2. Просмотрите доступные элементы для дополнения представленной диаграммы.&amp;nbsp;&lt;/p&gt;&lt;p style=&quot;font-size: 20px;&quot;&gt;3. Внимательно изучите интервью пациента и врача, на основании этого корректно дополните диаграмму, расставив в правильной последовательности доступные элементы .&lt;/p&gt;&lt;p style=&quot;font-size: 20px;&quot;&gt;&lt;span style=&quot;background-color: initial;&quot;&gt;&lt;font style=&quot;font-size: 20px;&quot;&gt;4. Далее изобразите потоки в том процессе, который вы дополнили.&amp;nbsp;&lt;/font&gt;&lt;/span&gt;&lt;/p&gt;&lt;p style=&quot;font-size: 20px;&quot;&gt;&lt;font style=&quot;font-size: 20px;&quot;&gt;5. Если вам не хватает информации в задании, то вы можете ее самостоятельно добавить в виде допущения&lt;/font&gt;&lt;/p&gt;&lt;p style=&quot;font-size: 20px;&quot;&gt;&lt;i&gt;Помните, что вы всегда можете оставить дополнительную информацию со своими размышлениями ревьюеру в виде пометок. Просто возьмите одну из карточек ниже.&amp;nbsp;&lt;/i&gt;&lt;/p&gt;&lt;p style=&quot;font-size: 20px;&quot;&gt;&lt;font style=&quot;font-size: 20px;&quot;&gt;7. Когда диаграмма BPMN будет готова, переходите к вкладке №2 для составления диаграммы состояний.&lt;/font&gt;&lt;/p&gt;" style="text;html=1;strokeColor=#82b366;fillColor=#d5e8d4;spacing=5;spacingTop=-20;whiteSpace=wrap;overflow=hidden;rounded=0;fontSize=16;" parent="1" vertex="1">
          <mxGeometry x="-760" y="-1120" width="710" height="730" as="geometry" />
        </mxCell>
        <mxCell id="_fkPrWMEkgT71YqrRsoF-6" value="&lt;h1 style=&quot;font-size: 20px;&quot;&gt;&lt;font style=&quot;font-size: 20px;&quot;&gt;Заметка для ревьюера&lt;/font&gt;&lt;/h1&gt;&lt;p style=&quot;font-size: 20px;&quot;&gt;&lt;font style=&quot;font-size: 20px;&quot;&gt;Текст заметки&lt;/font&gt;&lt;/p&gt;" style="text;html=1;strokeColor=#d6b656;fillColor=#fff2cc;spacing=5;spacingTop=-20;whiteSpace=wrap;overflow=hidden;rounded=0;fontSize=20;" parent="1" vertex="1">
          <mxGeometry x="-760" y="-360" width="370" height="170" as="geometry" />
        </mxCell>
        <mxCell id="l15NZp-PpOqTexfuGExK-1" value="&lt;h1 style=&quot;font-size: 20px;&quot;&gt;&lt;font style=&quot;font-size: 20px;&quot;&gt;Заметка для ревьюера&lt;/font&gt;&lt;/h1&gt;&lt;p style=&quot;font-size: 20px;&quot;&gt;&lt;font style=&quot;font-size: 20px;&quot;&gt;Текст заметки&lt;/font&gt;&lt;/p&gt;" style="text;html=1;strokeColor=#d6b656;fillColor=#fff2cc;spacing=5;spacingTop=-20;whiteSpace=wrap;overflow=hidden;rounded=0;fontSize=20;" parent="1" vertex="1">
          <mxGeometry x="-750" y="-350" width="370" height="170" as="geometry" />
        </mxCell>
        <mxCell id="l15NZp-PpOqTexfuGExK-2" value="&lt;h1 style=&quot;font-size: 20px;&quot;&gt;&lt;font style=&quot;font-size: 20px;&quot;&gt;Заметка для ревьюера&lt;/font&gt;&lt;/h1&gt;&lt;p style=&quot;font-size: 20px;&quot;&gt;&lt;font style=&quot;font-size: 20px;&quot;&gt;Текст заметки&lt;/font&gt;&lt;/p&gt;" style="text;html=1;strokeColor=#d6b656;fillColor=#fff2cc;spacing=5;spacingTop=-20;whiteSpace=wrap;overflow=hidden;rounded=0;fontSize=20;" parent="1" vertex="1">
          <mxGeometry x="-740" y="-340" width="370" height="170" as="geometry" />
        </mxCell>
        <mxCell id="l15NZp-PpOqTexfuGExK-3" value="&lt;h1 style=&quot;font-size: 20px;&quot;&gt;&lt;font style=&quot;font-size: 20px;&quot;&gt;Заметка для ревьюера&lt;/font&gt;&lt;/h1&gt;&lt;p style=&quot;font-size: 20px;&quot;&gt;&lt;font style=&quot;font-size: 20px;&quot;&gt;Текст заметки&lt;/font&gt;&lt;/p&gt;" style="text;html=1;strokeColor=#d6b656;fillColor=#fff2cc;spacing=5;spacingTop=-20;whiteSpace=wrap;overflow=hidden;rounded=0;fontSize=20;" parent="1" vertex="1">
          <mxGeometry x="-730" y="-330" width="370" height="170" as="geometry" />
        </mxCell>
        <mxCell id="U2e4l5wQemaMT4tLWJ_u-1" value="&lt;font style=&quot;font-size: 24px;&quot;&gt;Элементы доступные для добавления в диаграмму&amp;nbsp;&lt;/font&gt;" style="rounded=0;whiteSpace=wrap;html=1;fontSize=20;align=center;verticalAlign=top;" parent="1" vertex="1">
          <mxGeometry x="-810" y="-120" width="690" height="350" as="geometry" />
        </mxCell>
        <mxCell id="U2e4l5wQemaMT4tLWJ_u-86" value="Медицинская клиника&amp;nbsp;&lt;span style=&quot;text-align: start; fill: rgb(144, 101, 176);&quot; data-reactroot=&quot;&quot; class=&quot;notion-enable-hover&quot; data-token-index=&quot;0&quot;&gt;«Вита» имени Е.Л. Яницкой&lt;/span&gt;" style="swimlane;html=1;childLayout=stackLayout;resizeParent=1;resizeParentMax=0;horizontal=1;startSize=20;horizontalStack=0;" parent="1" vertex="1">
          <mxGeometry x="10" y="-620" width="3240" height="750" as="geometry" />
        </mxCell>
        <mxCell id="U2e4l5wQemaMT4tLWJ_u-87" value="Администратор" style="swimlane;html=1;startSize=20;horizontal=0;" parent="U2e4l5wQemaMT4tLWJ_u-86" vertex="1">
          <mxGeometry y="20" width="3240" height="410" as="geometry" />
        </mxCell>
        <mxCell id="U2e4l5wQemaMT4tLWJ_u-88" style="edgeStyle=orthogonalEdgeStyle;rounded=0;orthogonalLoop=1;jettySize=auto;html=1;" parent="U2e4l5wQemaMT4tLWJ_u-87" source="U2e4l5wQemaMT4tLWJ_u-89" edge="1">
          <mxGeometry relative="1" as="geometry">
            <mxPoint x="680" y="160.00000000000023" as="targetPoint" />
          </mxGeometry>
        </mxCell>
        <mxCell id="U2e4l5wQemaMT4tLWJ_u-89" value="Записать пациента на приём" style="points=[[0.25,0,0],[0.5,0,0],[0.75,0,0],[1,0.25,0],[1,0.5,0],[1,0.75,0],[0.75,1,0],[0.5,1,0],[0.25,1,0],[0,0.75,0],[0,0.5,0],[0,0.25,0]];shape=mxgraph.bpmn.task;whiteSpace=wrap;rectStyle=rounded;size=10;taskMarker=abstract;fontSize=11;" parent="U2e4l5wQemaMT4tLWJ_u-87" vertex="1">
          <mxGeometry x="450" y="120" width="120" height="80" as="geometry" />
        </mxCell>
        <mxCell id="U2e4l5wQemaMT4tLWJ_u-90" style="edgeStyle=orthogonalEdgeStyle;rounded=0;orthogonalLoop=1;jettySize=auto;html=1;entryX=0;entryY=0.5;entryDx=0;entryDy=0;entryPerimeter=0;" parent="U2e4l5wQemaMT4tLWJ_u-87" source="U2e4l5wQemaMT4tLWJ_u-91" target="U2e4l5wQemaMT4tLWJ_u-89" edge="1">
          <mxGeometry relative="1" as="geometry">
            <mxPoint x="340" y="189.99999999999977" as="targetPoint" />
          </mxGeometry>
        </mxCell>
        <mxCell id="U2e4l5wQemaMT4tLWJ_u-91" value="Найти свободное время для записи на  приём" style="points=[[0.25,0,0],[0.5,0,0],[0.75,0,0],[1,0.25,0],[1,0.5,0],[1,0.75,0],[0.75,1,0],[0.5,1,0],[0.25,1,0],[0,0.75,0],[0,0.5,0],[0,0.25,0]];shape=mxgraph.bpmn.task;whiteSpace=wrap;rectStyle=rounded;size=10;taskMarker=abstract;fontSize=11;" parent="U2e4l5wQemaMT4tLWJ_u-87" vertex="1">
          <mxGeometry x="130" y="120" width="120" height="80" as="geometry" />
        </mxCell>
        <mxCell id="U2e4l5wQemaMT4tLWJ_u-92" style="edgeStyle=orthogonalEdgeStyle;rounded=0;orthogonalLoop=1;jettySize=auto;html=1;" parent="U2e4l5wQemaMT4tLWJ_u-87" target="U2e4l5wQemaMT4tLWJ_u-95" edge="1">
          <mxGeometry relative="1" as="geometry">
            <mxPoint x="730" y="160.00000000000023" as="sourcePoint" />
          </mxGeometry>
        </mxCell>
        <mxCell id="U2e4l5wQemaMT4tLWJ_u-94" style="edgeStyle=orthogonalEdgeStyle;rounded=0;orthogonalLoop=1;jettySize=auto;html=1;startArrow=none;startFill=0;endArrow=classic;endFill=1;" parent="U2e4l5wQemaMT4tLWJ_u-87" source="U2e4l5wQemaMT4tLWJ_u-95" edge="1">
          <mxGeometry relative="1" as="geometry">
            <mxPoint x="1050" y="160" as="targetPoint" />
          </mxGeometry>
        </mxCell>
        <mxCell id="U2e4l5wQemaMT4tLWJ_u-95" value="Подтвердить запись по телефону" style="points=[[0.25,0,0],[0.5,0,0],[0.75,0,0],[1,0.25,0],[1,0.5,0],[1,0.75,0],[0.75,1,0],[0.5,1,0],[0.25,1,0],[0,0.75,0],[0,0.5,0],[0,0.25,0]];shape=mxgraph.bpmn.task;whiteSpace=wrap;rectStyle=rounded;size=10;taskMarker=abstract;fontSize=11;" parent="U2e4l5wQemaMT4tLWJ_u-87" vertex="1">
          <mxGeometry x="810" y="120" width="120" height="80" as="geometry" />
        </mxCell>
        <mxCell id="U2e4l5wQemaMT4tLWJ_u-96" value="Запись отменена" style="points=[[0.145,0.145,0],[0.5,0,0],[0.855,0.145,0],[1,0.5,0],[0.855,0.855,0],[0.5,1,0],[0.145,0.855,0],[0,0.5,0]];shape=mxgraph.bpmn.event;html=1;verticalLabelPosition=bottom;labelBackgroundColor=#ffffff;verticalAlign=top;align=center;perimeter=ellipsePerimeter;outlineConnect=0;aspect=fixed;outline=end;symbol=terminate2;" parent="U2e4l5wQemaMT4tLWJ_u-87" vertex="1">
          <mxGeometry x="1494" y="240" width="50" height="50" as="geometry" />
        </mxCell>
        <mxCell id="U2e4l5wQemaMT4tLWJ_u-97" value="" style="points=[[0.145,0.145,0],[0.5,0,0],[0.855,0.145,0],[1,0.5,0],[0.855,0.855,0],[0.5,1,0],[0.145,0.855,0],[0,0.5,0]];shape=mxgraph.bpmn.event;html=1;verticalLabelPosition=bottom;labelBackgroundColor=#ffffff;verticalAlign=top;align=center;perimeter=ellipsePerimeter;outlineConnect=0;aspect=fixed;outline=boundInt;symbol=error;fontSize=24;fontColor=#000000;fillColor=#FFFFFF;" parent="U2e4l5wQemaMT4tLWJ_u-87" vertex="1">
          <mxGeometry x="220" y="100" width="50" height="50" as="geometry" />
        </mxCell>
        <mxCell id="U2e4l5wQemaMT4tLWJ_u-98" value="Нет свободного&lt;br&gt;времени&amp;nbsp;" style="text;html=1;strokeColor=none;fillColor=none;align=center;verticalAlign=middle;whiteSpace=wrap;rounded=0;labelBackgroundColor=none;fontSize=12;fontColor=#000000;" parent="U2e4l5wQemaMT4tLWJ_u-87" vertex="1">
          <mxGeometry x="160" y="70" width="60" height="30" as="geometry" />
        </mxCell>
        <mxCell id="U2e4l5wQemaMT4tLWJ_u-99" style="edgeStyle=orthogonalEdgeStyle;rounded=0;orthogonalLoop=1;jettySize=auto;html=1;" parent="U2e4l5wQemaMT4tLWJ_u-87" target="U2e4l5wQemaMT4tLWJ_u-91" edge="1">
          <mxGeometry relative="1" as="geometry">
            <mxPoint x="80" y="160" as="sourcePoint" />
          </mxGeometry>
        </mxCell>
        <mxCell id="U2e4l5wQemaMT4tLWJ_u-100" value="&lt;font style=&quot;font-size: 11px;&quot;&gt;Поступил&lt;br&gt;&amp;nbsp;звонок &amp;nbsp;&lt;/font&gt;" style="points=[[0.145,0.145,0],[0.5,0,0],[0.855,0.145,0],[1,0.5,0],[0.855,0.855,0],[0.5,1,0],[0.145,0.855,0],[0,0.5,0]];shape=mxgraph.bpmn.event;html=1;verticalLabelPosition=bottom;labelBackgroundColor=#ffffff;verticalAlign=top;align=center;perimeter=ellipsePerimeter;outlineConnect=0;aspect=fixed;outline=standard;symbol=message;" parent="U2e4l5wQemaMT4tLWJ_u-87" vertex="1">
          <mxGeometry x="30" y="135" width="50" height="50" as="geometry" />
        </mxCell>
        <mxCell id="U2e4l5wQemaMT4tLWJ_u-101" style="edgeStyle=orthogonalEdgeStyle;rounded=0;orthogonalLoop=1;jettySize=auto;html=1;entryX=0;entryY=0.5;entryDx=0;entryDy=0;entryPerimeter=0;startArrow=none;startFill=0;endArrow=classic;endFill=1;" parent="U2e4l5wQemaMT4tLWJ_u-87" source="U2e4l5wQemaMT4tLWJ_u-102" target="U2e4l5wQemaMT4tLWJ_u-96" edge="1">
          <mxGeometry relative="1" as="geometry" />
        </mxCell>
        <mxCell id="U2e4l5wQemaMT4tLWJ_u-102" value="&lt;font style=&quot;font-size: 11px;&quot;&gt;Запись отменена&lt;/font&gt;" style="points=[[0.145,0.145,0],[0.5,0,0],[0.855,0.145,0],[1,0.5,0],[0.855,0.855,0],[0.5,1,0],[0.145,0.855,0],[0,0.5,0]];shape=mxgraph.bpmn.event;html=1;verticalLabelPosition=bottom;labelBackgroundColor=#ffffff;verticalAlign=top;align=center;perimeter=ellipsePerimeter;outlineConnect=0;aspect=fixed;outline=catching;symbol=message;" parent="U2e4l5wQemaMT4tLWJ_u-87" vertex="1">
          <mxGeometry x="1275" y="240" width="50" height="50" as="geometry" />
        </mxCell>
        <mxCell id="U2e4l5wQemaMT4tLWJ_u-103" value="&lt;font style=&quot;font-size: 11px;&quot;&gt;Запись подтверждена&lt;/font&gt;" style="points=[[0.145,0.145,0],[0.5,0,0],[0.855,0.145,0],[1,0.5,0],[0.855,0.855,0],[0.5,1,0],[0.145,0.855,0],[0,0.5,0]];shape=mxgraph.bpmn.event;html=1;verticalLabelPosition=bottom;labelBackgroundColor=#ffffff;verticalAlign=top;align=center;perimeter=ellipsePerimeter;outlineConnect=0;aspect=fixed;outline=catching;symbol=message;" parent="U2e4l5wQemaMT4tLWJ_u-87" vertex="1">
          <mxGeometry x="1390" y="60" width="50" height="50" as="geometry" />
        </mxCell>
        <mxCell id="U2e4l5wQemaMT4tLWJ_u-104" style="edgeStyle=orthogonalEdgeStyle;rounded=0;orthogonalLoop=1;jettySize=auto;html=1;entryX=0;entryY=0.5;entryDx=0;entryDy=0;entryPerimeter=0;startArrow=none;startFill=0;endArrow=classic;endFill=1;exitX=0.5;exitY=0;exitDx=0;exitDy=0;exitPerimeter=0;" parent="U2e4l5wQemaMT4tLWJ_u-87" source="U2e4l5wQemaMT4tLWJ_u-108" target="U2e4l5wQemaMT4tLWJ_u-103" edge="1">
          <mxGeometry relative="1" as="geometry">
            <mxPoint x="1100" y="160" as="sourcePoint" />
          </mxGeometry>
        </mxCell>
        <mxCell id="U2e4l5wQemaMT4tLWJ_u-105" value="Да" style="edgeLabel;html=1;align=center;verticalAlign=middle;resizable=0;points=[];fontSize=11;" parent="U2e4l5wQemaMT4tLWJ_u-104" vertex="1" connectable="0">
          <mxGeometry x="-0.0627" y="1" relative="1" as="geometry">
            <mxPoint as="offset" />
          </mxGeometry>
        </mxCell>
        <mxCell id="U2e4l5wQemaMT4tLWJ_u-106" style="edgeStyle=orthogonalEdgeStyle;rounded=0;orthogonalLoop=1;jettySize=auto;html=1;entryX=0;entryY=0.5;entryDx=0;entryDy=0;entryPerimeter=0;startArrow=none;startFill=0;endArrow=classic;endFill=1;exitX=1;exitY=0.5;exitDx=0;exitDy=0;exitPerimeter=0;" parent="U2e4l5wQemaMT4tLWJ_u-87" source="U2e4l5wQemaMT4tLWJ_u-108" target="U2e4l5wQemaMT4tLWJ_u-102" edge="1">
          <mxGeometry relative="1" as="geometry">
            <mxPoint x="1075" y="185" as="sourcePoint" />
          </mxGeometry>
        </mxCell>
        <mxCell id="U2e4l5wQemaMT4tLWJ_u-107" value="Нет" style="edgeLabel;html=1;align=center;verticalAlign=middle;resizable=0;points=[];fontSize=11;" parent="U2e4l5wQemaMT4tLWJ_u-106" vertex="1" connectable="0">
          <mxGeometry x="-0.5693" y="2" relative="1" as="geometry">
            <mxPoint x="30" y="47" as="offset" />
          </mxGeometry>
        </mxCell>
        <mxCell id="U2e4l5wQemaMT4tLWJ_u-108" value="&lt;font style=&quot;font-size: 11px;&quot;&gt;Запись подтверждена?&lt;/font&gt;" style="points=[[0.25,0.25,0],[0.5,0,0],[0.75,0.25,0],[1,0.5,0],[0.75,0.75,0],[0.5,1,0],[0.25,0.75,0],[0,0.5,0]];shape=mxgraph.bpmn.gateway2;html=1;verticalLabelPosition=bottom;labelBackgroundColor=#ffffff;verticalAlign=top;align=center;perimeter=rhombusPerimeter;outlineConnect=0;outline=boundInt;symbol=multiple;" parent="U2e4l5wQemaMT4tLWJ_u-87" vertex="1">
          <mxGeometry x="1050" y="135" width="50" height="50" as="geometry" />
        </mxCell>
        <mxCell id="U2e4l5wQemaMT4tLWJ_u-175" value="&lt;font style=&quot;font-size: 11px;&quot;&gt;1 день&amp;nbsp;&lt;br&gt;до назначенного&amp;nbsp;&lt;br&gt;приёма&lt;br&gt;&lt;/font&gt;" style="points=[[0.145,0.145,0],[0.5,0,0],[0.855,0.145,0],[1,0.5,0],[0.855,0.855,0],[0.5,1,0],[0.145,0.855,0],[0,0.5,0]];shape=mxgraph.bpmn.event;html=1;verticalLabelPosition=bottom;labelBackgroundColor=#ffffff;verticalAlign=top;align=center;perimeter=ellipsePerimeter;outlineConnect=0;aspect=fixed;outline=catching;symbol=timer;fontSize=11;" parent="U2e4l5wQemaMT4tLWJ_u-87" vertex="1">
          <mxGeometry x="680" y="135" width="50" height="50" as="geometry" />
        </mxCell>
        <mxCell id="U2e4l5wQemaMT4tLWJ_u-109" value="Врач" style="swimlane;html=1;startSize=20;horizontal=0;" parent="U2e4l5wQemaMT4tLWJ_u-86" vertex="1">
          <mxGeometry y="430" width="3240" height="320" as="geometry" />
        </mxCell>
        <mxCell id="fnF3ptjWUz3oON4goJw0-6" style="edgeStyle=orthogonalEdgeStyle;rounded=0;orthogonalLoop=1;jettySize=auto;html=1;" parent="U2e4l5wQemaMT4tLWJ_u-109" source="U2e4l5wQemaMT4tLWJ_u-111" target="U2e4l5wQemaMT4tLWJ_u-117" edge="1">
          <mxGeometry relative="1" as="geometry" />
        </mxCell>
        <mxCell id="U2e4l5wQemaMT4tLWJ_u-111" value="Принять пациента " style="points=[[0.25,0,0],[0.5,0,0],[0.75,0,0],[1,0.25,0],[1,0.5,0],[1,0.75,0],[0.75,1,0],[0.5,1,0],[0.25,1,0],[0,0.75,0],[0,0.5,0],[0,0.25,0]];shape=mxgraph.bpmn.task;whiteSpace=wrap;rectStyle=rounded;size=10;taskMarker=abstract;fontSize=11;" parent="U2e4l5wQemaMT4tLWJ_u-109" vertex="1">
          <mxGeometry x="2100" y="95" width="120" height="80" as="geometry" />
        </mxCell>
        <mxCell id="qk01pr19a9Rk1yMxGllX-1" style="edgeStyle=orthogonalEdgeStyle;rounded=0;orthogonalLoop=1;jettySize=auto;html=1;" parent="U2e4l5wQemaMT4tLWJ_u-109" source="U2e4l5wQemaMT4tLWJ_u-117" target="U2e4l5wQemaMT4tLWJ_u-116" edge="1">
          <mxGeometry relative="1" as="geometry" />
        </mxCell>
        <mxCell id="U2e4l5wQemaMT4tLWJ_u-117" value="Поставить диагноз" style="points=[[0.25,0,0],[0.5,0,0],[0.75,0,0],[1,0.25,0],[1,0.5,0],[1,0.75,0],[0.75,1,0],[0.5,1,0],[0.25,1,0],[0,0.75,0],[0,0.5,0],[0,0.25,0]];shape=mxgraph.bpmn.task;whiteSpace=wrap;rectStyle=rounded;size=10;taskMarker=abstract;isLoopSub=1;labelBackgroundColor=#FFFFFF;fontSize=11;fontColor=#000000;fillColor=#FFFFFF;" parent="U2e4l5wQemaMT4tLWJ_u-109" vertex="1">
          <mxGeometry x="2260" y="95" width="120" height="80" as="geometry" />
        </mxCell>
        <mxCell id="xawkJsZRiylP0sTRh3OZ-2" style="edgeStyle=orthogonalEdgeStyle;rounded=0;orthogonalLoop=1;jettySize=auto;html=1;" parent="U2e4l5wQemaMT4tLWJ_u-109" source="U2e4l5wQemaMT4tLWJ_u-113" target="U2e4l5wQemaMT4tLWJ_u-130" edge="1">
          <mxGeometry relative="1" as="geometry" />
        </mxCell>
        <mxCell id="U2e4l5wQemaMT4tLWJ_u-113" value="Назначить лечение" style="points=[[0.25,0,0],[0.5,0,0],[0.75,0,0],[1,0.25,0],[1,0.5,0],[1,0.75,0],[0.75,1,0],[0.5,1,0],[0.25,1,0],[0,0.75,0],[0,0.5,0],[0,0.25,0]];shape=mxgraph.bpmn.task;whiteSpace=wrap;rectStyle=rounded;size=10;taskMarker=abstract;fontSize=11;" parent="U2e4l5wQemaMT4tLWJ_u-109" vertex="1">
          <mxGeometry x="2530" y="95" width="120" height="80" as="geometry" />
        </mxCell>
        <mxCell id="fnF3ptjWUz3oON4goJw0-5" style="edgeStyle=orthogonalEdgeStyle;rounded=0;orthogonalLoop=1;jettySize=auto;html=1;" parent="U2e4l5wQemaMT4tLWJ_u-109" source="bgzB-QOVBe--87YR9fQm-1" target="U2e4l5wQemaMT4tLWJ_u-111" edge="1">
          <mxGeometry relative="1" as="geometry" />
        </mxCell>
        <mxCell id="bgzB-QOVBe--87YR9fQm-1" value="Пациент&lt;br style=&quot;border-color: var(--border-color); font-size: 11px;&quot;&gt;&lt;span style=&quot;font-size: 11px;&quot;&gt;пришел на приём&lt;/span&gt;" style="points=[[0.145,0.145,0],[0.5,0,0],[0.855,0.145,0],[1,0.5,0],[0.855,0.855,0],[0.5,1,0],[0.145,0.855,0],[0,0.5,0]];shape=mxgraph.bpmn.event;html=1;verticalLabelPosition=bottom;labelBackgroundColor=#ffffff;verticalAlign=top;align=center;perimeter=ellipsePerimeter;outlineConnect=0;aspect=fixed;outline=catching;symbol=message;" parent="U2e4l5wQemaMT4tLWJ_u-109" vertex="1">
          <mxGeometry x="1935" y="110" width="50" height="50" as="geometry" />
        </mxCell>
        <mxCell id="U2e4l5wQemaMT4tLWJ_u-130" value="Оформлен&lt;br style=&quot;border-color: var(--border-color);&quot;&gt;протокол осмотра&lt;span style=&quot;background-color: rgb(248, 249, 250);&quot;&gt;&lt;br&gt;&lt;/span&gt;" style="points=[[0.145,0.145,0],[0.5,0,0],[0.855,0.145,0],[1,0.5,0],[0.855,0.855,0],[0.5,1,0],[0.145,0.855,0],[0,0.5,0]];shape=mxgraph.bpmn.event;html=1;verticalLabelPosition=bottom;labelBackgroundColor=#ffffff;verticalAlign=top;align=center;perimeter=ellipsePerimeter;outlineConnect=0;aspect=fixed;outline=end;symbol=terminate2;fontSize=11;" parent="U2e4l5wQemaMT4tLWJ_u-109" vertex="1">
          <mxGeometry x="2720" y="110" width="50" height="50" as="geometry" />
        </mxCell>
        <mxCell id="qk01pr19a9Rk1yMxGllX-2" style="edgeStyle=orthogonalEdgeStyle;rounded=0;orthogonalLoop=1;jettySize=auto;html=1;" parent="U2e4l5wQemaMT4tLWJ_u-109" source="U2e4l5wQemaMT4tLWJ_u-116" target="U2e4l5wQemaMT4tLWJ_u-113" edge="1">
          <mxGeometry relative="1" as="geometry" />
        </mxCell>
        <mxCell id="U2e4l5wQemaMT4tLWJ_u-116" value="&lt;font style=&quot;font-size: 11px;&quot;&gt;Диагноз поставлен&lt;/font&gt;" style="points=[[0.145,0.145,0],[0.5,0,0],[0.855,0.145,0],[1,0.5,0],[0.855,0.855,0],[0.5,1,0],[0.145,0.855,0],[0,0.5,0]];shape=mxgraph.bpmn.event;html=1;verticalLabelPosition=bottom;labelBackgroundColor=#ffffff;verticalAlign=top;align=center;perimeter=ellipsePerimeter;outlineConnect=0;aspect=fixed;outline=throwing;symbol=general;" parent="U2e4l5wQemaMT4tLWJ_u-109" vertex="1">
          <mxGeometry x="2421" y="110" width="50" height="50" as="geometry" />
        </mxCell>
        <mxCell id="fnF3ptjWUz3oON4goJw0-1" style="edgeStyle=orthogonalEdgeStyle;rounded=0;orthogonalLoop=1;jettySize=auto;html=1;entryX=0;entryY=0.5;entryDx=0;entryDy=0;entryPerimeter=0;" parent="U2e4l5wQemaMT4tLWJ_u-86" source="U2e4l5wQemaMT4tLWJ_u-103" target="bgzB-QOVBe--87YR9fQm-1" edge="1">
          <mxGeometry relative="1" as="geometry" />
        </mxCell>
        <mxCell id="U2e4l5wQemaMT4tLWJ_u-122" value="Пациент" style="swimlane;html=1;startSize=20;horizontal=0;" parent="1" vertex="1">
          <mxGeometry x="10" y="-1120" width="3240" height="450" as="geometry" />
        </mxCell>
        <mxCell id="U2e4l5wQemaMT4tLWJ_u-123" style="edgeStyle=orthogonalEdgeStyle;rounded=0;orthogonalLoop=1;jettySize=auto;html=1;entryX=0;entryY=0.5;entryDx=0;entryDy=0;entryPerimeter=0;startArrow=none;startFill=0;endArrow=classic;endFill=1;" parent="U2e4l5wQemaMT4tLWJ_u-122" source="U2e4l5wQemaMT4tLWJ_u-124" edge="1">
          <mxGeometry relative="1" as="geometry">
            <mxPoint x="295" y="170" as="targetPoint" />
          </mxGeometry>
        </mxCell>
        <mxCell id="U2e4l5wQemaMT4tLWJ_u-124" value="Записаться на приём по телефону" style="points=[[0.25,0,0],[0.5,0,0],[0.75,0,0],[1,0.25,0],[1,0.5,0],[1,0.75,0],[0.75,1,0],[0.5,1,0],[0.25,1,0],[0,0.75,0],[0,0.5,0],[0,0.25,0]];shape=mxgraph.bpmn.task;whiteSpace=wrap;rectStyle=rounded;size=10;taskMarker=abstract;fontSize=11;" parent="U2e4l5wQemaMT4tLWJ_u-122" vertex="1">
          <mxGeometry x="135" y="130" width="120" height="80" as="geometry" />
        </mxCell>
        <mxCell id="U2e4l5wQemaMT4tLWJ_u-125" style="edgeStyle=orthogonalEdgeStyle;rounded=0;orthogonalLoop=1;jettySize=auto;html=1;" parent="U2e4l5wQemaMT4tLWJ_u-122" source="U2e4l5wQemaMT4tLWJ_u-126" target="U2e4l5wQemaMT4tLWJ_u-124" edge="1">
          <mxGeometry relative="1" as="geometry" />
        </mxCell>
        <mxCell id="U2e4l5wQemaMT4tLWJ_u-126" value="" style="points=[[0.145,0.145,0],[0.5,0,0],[0.855,0.145,0],[1,0.5,0],[0.855,0.855,0],[0.5,1,0],[0.145,0.855,0],[0,0.5,0]];shape=mxgraph.bpmn.event;html=1;verticalLabelPosition=bottom;labelBackgroundColor=#ffffff;verticalAlign=top;align=center;perimeter=ellipsePerimeter;outlineConnect=0;aspect=fixed;outline=standard;symbol=general;" parent="U2e4l5wQemaMT4tLWJ_u-122" vertex="1">
          <mxGeometry x="45" y="145" width="50" height="50" as="geometry" />
        </mxCell>
        <mxCell id="U2e4l5wQemaMT4tLWJ_u-129" value="&lt;font style=&quot;font-size: 11px;&quot;&gt;Плохое самочувствие&lt;/font&gt;" style="text;html=1;strokeColor=none;fillColor=none;align=center;verticalAlign=middle;whiteSpace=wrap;rounded=0;" parent="U2e4l5wQemaMT4tLWJ_u-122" vertex="1">
          <mxGeometry x="40" y="205" width="60" height="30" as="geometry" />
        </mxCell>
        <mxCell id="U2e4l5wQemaMT4tLWJ_u-133" style="edgeStyle=orthogonalEdgeStyle;rounded=0;orthogonalLoop=1;jettySize=auto;html=1;fontSize=24;fontColor=#000000;entryX=0;entryY=0.5;entryDx=0;entryDy=0;entryPerimeter=0;" parent="U2e4l5wQemaMT4tLWJ_u-122" source="U2e4l5wQemaMT4tLWJ_u-134" target="U2e4l5wQemaMT4tLWJ_u-159" edge="1">
          <mxGeometry relative="1" as="geometry">
            <mxPoint x="695" y="110" as="targetPoint" />
          </mxGeometry>
        </mxCell>
        <mxCell id="U2e4l5wQemaMT4tLWJ_u-134" value="Записаться на приём в другой медицинской клиники" style="points=[[0.25,0,0],[0.5,0,0],[0.75,0,0],[1,0.25,0],[1,0.5,0],[1,0.75,0],[0.75,1,0],[0.5,1,0],[0.25,1,0],[0,0.75,0],[0,0.5,0],[0,0.25,0]];shape=mxgraph.bpmn.task;whiteSpace=wrap;rectStyle=rounded;size=10;taskMarker=abstract;labelBackgroundColor=none;fontSize=11;fontColor=#000000;fillColor=#FFFFFF;" parent="U2e4l5wQemaMT4tLWJ_u-122" vertex="1">
          <mxGeometry x="495" y="70" width="120" height="80" as="geometry" />
        </mxCell>
        <mxCell id="U2e4l5wQemaMT4tLWJ_u-135" style="edgeStyle=orthogonalEdgeStyle;rounded=0;orthogonalLoop=1;jettySize=auto;html=1;entryX=0;entryY=0.5;entryDx=0;entryDy=0;entryPerimeter=0;" parent="U2e4l5wQemaMT4tLWJ_u-122" source="U2e4l5wQemaMT4tLWJ_u-136" target="U2e4l5wQemaMT4tLWJ_u-134" edge="1">
          <mxGeometry relative="1" as="geometry" />
        </mxCell>
        <mxCell id="U2e4l5wQemaMT4tLWJ_u-136" value="" style="points=[[0.145,0.145,0],[0.5,0,0],[0.855,0.145,0],[1,0.5,0],[0.855,0.855,0],[0.5,1,0],[0.145,0.855,0],[0,0.5,0]];shape=mxgraph.bpmn.event;html=1;verticalLabelPosition=bottom;labelBackgroundColor=#ffffff;verticalAlign=top;align=center;perimeter=ellipsePerimeter;outlineConnect=0;aspect=fixed;outline=catching;symbol=message;" parent="U2e4l5wQemaMT4tLWJ_u-122" vertex="1">
          <mxGeometry x="365" y="85" width="50" height="50" as="geometry" />
        </mxCell>
        <mxCell id="U2e4l5wQemaMT4tLWJ_u-139" style="edgeStyle=orthogonalEdgeStyle;rounded=0;orthogonalLoop=1;jettySize=auto;html=1;entryX=0;entryY=0.5;entryDx=0;entryDy=0;entryPerimeter=0;startArrow=none;startFill=0;endArrow=classic;endFill=1;" parent="U2e4l5wQemaMT4tLWJ_u-122" source="U2e4l5wQemaMT4tLWJ_u-140" target="U2e4l5wQemaMT4tLWJ_u-154" edge="1">
          <mxGeometry relative="1" as="geometry">
            <Array as="points">
              <mxPoint x="815" y="245" />
              <mxPoint x="815" y="125" />
            </Array>
          </mxGeometry>
        </mxCell>
        <mxCell id="U2e4l5wQemaMT4tLWJ_u-140" value="" style="points=[[0.145,0.145,0],[0.5,0,0],[0.855,0.145,0],[1,0.5,0],[0.855,0.855,0],[0.5,1,0],[0.145,0.855,0],[0,0.5,0]];shape=mxgraph.bpmn.event;html=1;verticalLabelPosition=bottom;labelBackgroundColor=#ffffff;verticalAlign=top;align=center;perimeter=ellipsePerimeter;outlineConnect=0;aspect=fixed;outline=catching;symbol=message;" parent="U2e4l5wQemaMT4tLWJ_u-122" vertex="1">
          <mxGeometry x="485" y="220" width="50" height="50" as="geometry" />
        </mxCell>
        <mxCell id="U2e4l5wQemaMT4tLWJ_u-141" style="edgeStyle=orthogonalEdgeStyle;rounded=0;orthogonalLoop=1;jettySize=auto;html=1;entryX=0;entryY=0.5;entryDx=0;entryDy=0;entryPerimeter=0;startArrow=none;startFill=0;endArrow=classic;endFill=1;exitX=0.5;exitY=0;exitDx=0;exitDy=0;exitPerimeter=0;" parent="U2e4l5wQemaMT4tLWJ_u-122" source="U2e4l5wQemaMT4tLWJ_u-155" target="U2e4l5wQemaMT4tLWJ_u-136" edge="1">
          <mxGeometry relative="1" as="geometry">
            <mxPoint x="320" y="145" as="sourcePoint" />
          </mxGeometry>
        </mxCell>
        <mxCell id="U2e4l5wQemaMT4tLWJ_u-142" style="edgeStyle=orthogonalEdgeStyle;rounded=0;orthogonalLoop=1;jettySize=auto;html=1;entryX=0;entryY=0.5;entryDx=0;entryDy=0;entryPerimeter=0;startArrow=none;startFill=0;endArrow=classic;endFill=1;exitX=1;exitY=0.5;exitDx=0;exitDy=0;exitPerimeter=0;" parent="U2e4l5wQemaMT4tLWJ_u-122" source="U2e4l5wQemaMT4tLWJ_u-155" target="U2e4l5wQemaMT4tLWJ_u-140" edge="1">
          <mxGeometry relative="1" as="geometry">
            <mxPoint x="320" y="195" as="sourcePoint" />
          </mxGeometry>
        </mxCell>
        <mxCell id="U2e4l5wQemaMT4tLWJ_u-143" style="edgeStyle=orthogonalEdgeStyle;rounded=0;orthogonalLoop=1;jettySize=auto;html=1;entryX=0;entryY=0.5;entryDx=0;entryDy=0;entryPerimeter=0;startArrow=none;startFill=0;endArrow=classic;endFill=1;" parent="U2e4l5wQemaMT4tLWJ_u-122" source="U2e4l5wQemaMT4tLWJ_u-144" target="U2e4l5wQemaMT4tLWJ_u-156" edge="1">
          <mxGeometry relative="1" as="geometry" />
        </mxCell>
        <mxCell id="U2e4l5wQemaMT4tLWJ_u-144" value="Отменить запись" style="points=[[0.25,0,0],[0.5,0,0],[0.75,0,0],[1,0.25,0],[1,0.5,0],[1,0.75,0],[0.75,1,0],[0.5,1,0],[0.25,1,0],[0,0.75,0],[0,0.5,0],[0,0.25,0]];shape=mxgraph.bpmn.task;whiteSpace=wrap;rectStyle=rounded;size=10;taskMarker=abstract;fontSize=11;" parent="U2e4l5wQemaMT4tLWJ_u-122" vertex="1">
          <mxGeometry x="1240" y="235" width="120" height="80" as="geometry" />
        </mxCell>
        <mxCell id="U2e4l5wQemaMT4tLWJ_u-145" style="edgeStyle=orthogonalEdgeStyle;rounded=0;orthogonalLoop=1;jettySize=auto;html=1;entryX=0;entryY=0.5;entryDx=0;entryDy=0;entryPerimeter=0;exitX=0.5;exitY=1;exitDx=0;exitDy=0;exitPerimeter=0;" parent="U2e4l5wQemaMT4tLWJ_u-122" source="U2e4l5wQemaMT4tLWJ_u-147" target="U2e4l5wQemaMT4tLWJ_u-144" edge="1">
          <mxGeometry relative="1" as="geometry" />
        </mxCell>
        <mxCell id="U2e4l5wQemaMT4tLWJ_u-146" value="Нет" style="edgeLabel;html=1;align=center;verticalAlign=middle;resizable=0;points=[];" parent="U2e4l5wQemaMT4tLWJ_u-145" vertex="1" connectable="0">
          <mxGeometry x="0.0399" y="1" relative="1" as="geometry">
            <mxPoint x="41" y="1" as="offset" />
          </mxGeometry>
        </mxCell>
        <mxCell id="U2e4l5wQemaMT4tLWJ_u-147" value="" style="points=[[0.25,0.25,0],[0.5,0,0],[0.75,0.25,0],[1,0.5,0],[0.75,0.75,0],[0.5,1,0],[0.25,0.75,0],[0,0.5,0]];shape=mxgraph.bpmn.gateway2;html=1;verticalLabelPosition=bottom;labelBackgroundColor=#ffffff;verticalAlign=top;align=center;perimeter=rhombusPerimeter;outlineConnect=0;outline=none;symbol=none;gwType=exclusive;" parent="U2e4l5wQemaMT4tLWJ_u-122" vertex="1">
          <mxGeometry x="1045" y="100" width="50" height="50" as="geometry" />
        </mxCell>
        <mxCell id="U2e4l5wQemaMT4tLWJ_u-148" value="&lt;font style=&quot;font-size: 11px;&quot;&gt;Подтвердить запись?&lt;/font&gt;" style="text;html=1;strokeColor=none;fillColor=none;align=center;verticalAlign=middle;whiteSpace=wrap;rounded=0;" parent="U2e4l5wQemaMT4tLWJ_u-122" vertex="1">
          <mxGeometry x="1015" y="70" width="110" height="30" as="geometry" />
        </mxCell>
        <mxCell id="aD1MpAMqYmNUXwSmTl3j-1" style="edgeStyle=orthogonalEdgeStyle;rounded=0;orthogonalLoop=1;jettySize=auto;html=1;" parent="U2e4l5wQemaMT4tLWJ_u-122" source="U2e4l5wQemaMT4tLWJ_u-150" target="U2e4l5wQemaMT4tLWJ_u-176" edge="1">
          <mxGeometry relative="1" as="geometry" />
        </mxCell>
        <mxCell id="U2e4l5wQemaMT4tLWJ_u-150" value="Подтвердить запись" style="points=[[0.25,0,0],[0.5,0,0],[0.75,0,0],[1,0.25,0],[1,0.5,0],[1,0.75,0],[0.75,1,0],[0.5,1,0],[0.25,1,0],[0,0.75,0],[0,0.5,0],[0,0.25,0]];shape=mxgraph.bpmn.task;whiteSpace=wrap;rectStyle=rounded;size=10;taskMarker=abstract;fontSize=11;" parent="U2e4l5wQemaMT4tLWJ_u-122" vertex="1">
          <mxGeometry x="1245" y="85" width="120" height="80" as="geometry" />
        </mxCell>
        <mxCell id="U2e4l5wQemaMT4tLWJ_u-151" style="edgeStyle=orthogonalEdgeStyle;rounded=0;orthogonalLoop=1;jettySize=auto;html=1;entryX=0;entryY=0.5;entryDx=0;entryDy=0;entryPerimeter=0;exitX=1;exitY=0.5;exitDx=0;exitDy=0;exitPerimeter=0;" parent="U2e4l5wQemaMT4tLWJ_u-122" source="U2e4l5wQemaMT4tLWJ_u-147" target="U2e4l5wQemaMT4tLWJ_u-150" edge="1">
          <mxGeometry relative="1" as="geometry">
            <mxPoint x="1174.9999999999995" y="250" as="targetPoint" />
          </mxGeometry>
        </mxCell>
        <mxCell id="U2e4l5wQemaMT4tLWJ_u-152" value="Да" style="edgeLabel;html=1;align=center;verticalAlign=middle;resizable=0;points=[];" parent="U2e4l5wQemaMT4tLWJ_u-151" vertex="1" connectable="0">
          <mxGeometry x="0.1408" y="-1" relative="1" as="geometry">
            <mxPoint x="-16" y="-1" as="offset" />
          </mxGeometry>
        </mxCell>
        <mxCell id="U2e4l5wQemaMT4tLWJ_u-153" style="edgeStyle=orthogonalEdgeStyle;rounded=0;orthogonalLoop=1;jettySize=auto;html=1;startArrow=none;startFill=0;endArrow=classic;endFill=1;" parent="U2e4l5wQemaMT4tLWJ_u-122" source="U2e4l5wQemaMT4tLWJ_u-154" target="U2e4l5wQemaMT4tLWJ_u-147" edge="1">
          <mxGeometry relative="1" as="geometry" />
        </mxCell>
        <mxCell id="U2e4l5wQemaMT4tLWJ_u-154" value="" style="points=[[0.145,0.145,0],[0.5,0,0],[0.855,0.145,0],[1,0.5,0],[0.855,0.855,0],[0.5,1,0],[0.145,0.855,0],[0,0.5,0]];shape=mxgraph.bpmn.event;html=1;verticalLabelPosition=bottom;labelBackgroundColor=#ffffff;verticalAlign=top;align=center;perimeter=ellipsePerimeter;outlineConnect=0;aspect=fixed;outline=catching;symbol=message;" parent="U2e4l5wQemaMT4tLWJ_u-122" vertex="1">
          <mxGeometry x="845" y="100" width="50" height="50" as="geometry" />
        </mxCell>
        <mxCell id="U2e4l5wQemaMT4tLWJ_u-155" value="Есть &lt;br&gt;свободное время?" style="points=[[0.25,0.25,0],[0.5,0,0],[0.75,0.25,0],[1,0.5,0],[0.75,0.75,0],[0.5,1,0],[0.25,0.75,0],[0,0.5,0]];shape=mxgraph.bpmn.gateway2;html=1;verticalLabelPosition=bottom;labelBackgroundColor=#ffffff;verticalAlign=top;align=center;perimeter=rhombusPerimeter;outlineConnect=0;outline=boundInt;symbol=multiple;" parent="U2e4l5wQemaMT4tLWJ_u-122" vertex="1">
          <mxGeometry x="295" y="145" width="50" height="50" as="geometry" />
        </mxCell>
        <mxCell id="U2e4l5wQemaMT4tLWJ_u-156" value="Запись отменена" style="points=[[0.145,0.145,0],[0.5,0,0],[0.855,0.145,0],[1,0.5,0],[0.855,0.855,0],[0.5,1,0],[0.145,0.855,0],[0,0.5,0]];shape=mxgraph.bpmn.event;html=1;verticalLabelPosition=bottom;labelBackgroundColor=#ffffff;verticalAlign=top;align=center;perimeter=ellipsePerimeter;outlineConnect=0;aspect=fixed;outline=end;symbol=terminate2;" parent="U2e4l5wQemaMT4tLWJ_u-122" vertex="1">
          <mxGeometry x="1535" y="250" width="50" height="50" as="geometry" />
        </mxCell>
        <mxCell id="U2e4l5wQemaMT4tLWJ_u-157" value="&lt;font style=&quot;font-size: 11px;&quot;&gt;Нет свободного&lt;br&gt;времени&lt;/font&gt;" style="text;html=1;strokeColor=none;fillColor=none;align=center;verticalAlign=middle;whiteSpace=wrap;rounded=0;" parent="U2e4l5wQemaMT4tLWJ_u-122" vertex="1">
          <mxGeometry x="360" y="45" width="60" height="30" as="geometry" />
        </mxCell>
        <mxCell id="U2e4l5wQemaMT4tLWJ_u-158" value="&lt;span style=&quot;font-size: 11px;&quot;&gt;Записан на&amp;nbsp;&lt;/span&gt;&lt;span style=&quot;font-size: 11px; background-color: rgb(255, 255, 255);&quot;&gt;приём&lt;/span&gt;" style="text;html=1;strokeColor=none;fillColor=none;align=center;verticalAlign=middle;whiteSpace=wrap;rounded=0;" parent="U2e4l5wQemaMT4tLWJ_u-122" vertex="1">
          <mxGeometry x="480" y="180" width="60" height="30" as="geometry" />
        </mxCell>
        <mxCell id="U2e4l5wQemaMT4tLWJ_u-159" value="Записан на&amp;nbsp;приём&amp;nbsp;в&amp;nbsp;&lt;br&gt;другую клинику" style="points=[[0.145,0.145,0],[0.5,0,0],[0.855,0.145,0],[1,0.5,0],[0.855,0.855,0],[0.5,1,0],[0.145,0.855,0],[0,0.5,0]];shape=mxgraph.bpmn.event;html=1;verticalLabelPosition=bottom;labelBackgroundColor=#ffffff;verticalAlign=top;align=center;perimeter=ellipsePerimeter;outlineConnect=0;aspect=fixed;outline=end;symbol=terminate2;fontSize=11;" parent="U2e4l5wQemaMT4tLWJ_u-122" vertex="1">
          <mxGeometry x="700" y="85" width="50" height="50" as="geometry" />
        </mxCell>
        <mxCell id="U2e4l5wQemaMT4tLWJ_u-160" value="&lt;font style=&quot;font-size: 11px;&quot;&gt;Звонок для подтверждения записи&amp;nbsp;&lt;/font&gt;" style="text;html=1;strokeColor=none;fillColor=none;align=center;verticalAlign=middle;whiteSpace=wrap;rounded=0;" parent="U2e4l5wQemaMT4tLWJ_u-122" vertex="1">
          <mxGeometry x="815" y="55" width="110" height="30" as="geometry" />
        </mxCell>
        <mxCell id="qk01pr19a9Rk1yMxGllX-3" style="edgeStyle=orthogonalEdgeStyle;rounded=0;orthogonalLoop=1;jettySize=auto;html=1;" parent="U2e4l5wQemaMT4tLWJ_u-122" source="U2e4l5wQemaMT4tLWJ_u-128" target="U2e4l5wQemaMT4tLWJ_u-138" edge="1">
          <mxGeometry relative="1" as="geometry" />
        </mxCell>
        <mxCell id="U2e4l5wQemaMT4tLWJ_u-128" value="Прийти на приём" style="points=[[0.25,0,0],[0.5,0,0],[0.75,0,0],[1,0.25,0],[1,0.5,0],[1,0.75,0],[0.75,1,0],[0.5,1,0],[0.25,1,0],[0,0.75,0],[0,0.5,0],[0,0.25,0]];shape=mxgraph.bpmn.task;whiteSpace=wrap;rectStyle=rounded;size=10;taskMarker=abstract;fontSize=11;" parent="U2e4l5wQemaMT4tLWJ_u-122" vertex="1">
          <mxGeometry x="1900" y="85" width="120" height="80" as="geometry" />
        </mxCell>
        <mxCell id="U2e4l5wQemaMT4tLWJ_u-176" value="В день &lt;br&gt;записи на&amp;nbsp;приём" style="points=[[0.145,0.145,0],[0.5,0,0],[0.855,0.145,0],[1,0.5,0],[0.855,0.855,0],[0.5,1,0],[0.145,0.855,0],[0,0.5,0]];shape=mxgraph.bpmn.event;html=1;verticalLabelPosition=bottom;labelBackgroundColor=#ffffff;verticalAlign=top;align=center;perimeter=ellipsePerimeter;outlineConnect=0;aspect=fixed;outline=catching;symbol=timer;fontSize=11;" parent="U2e4l5wQemaMT4tLWJ_u-122" vertex="1">
          <mxGeometry x="1680" y="100" width="50" height="50" as="geometry" />
        </mxCell>
        <mxCell id="fnF3ptjWUz3oON4goJw0-3" style="edgeStyle=orthogonalEdgeStyle;rounded=0;orthogonalLoop=1;jettySize=auto;html=1;" parent="U2e4l5wQemaMT4tLWJ_u-122" source="U2e4l5wQemaMT4tLWJ_u-176" target="U2e4l5wQemaMT4tLWJ_u-128" edge="1">
          <mxGeometry relative="1" as="geometry" />
        </mxCell>
        <mxCell id="U2e4l5wQemaMT4tLWJ_u-120" value="&lt;font style=&quot;font-size: 11px;&quot;&gt;Приём завершён&lt;/font&gt;" style="points=[[0.145,0.145,0],[0.5,0,0],[0.855,0.145,0],[1,0.5,0],[0.855,0.855,0],[0.5,1,0],[0.145,0.855,0],[0,0.5,0]];shape=mxgraph.bpmn.event;html=1;verticalLabelPosition=bottom;labelBackgroundColor=#ffffff;verticalAlign=top;align=center;perimeter=ellipsePerimeter;outlineConnect=0;aspect=fixed;outline=end;symbol=terminate2;" parent="U2e4l5wQemaMT4tLWJ_u-122" vertex="1">
          <mxGeometry x="2940" y="100" width="50" height="50" as="geometry" />
        </mxCell>
        <mxCell id="U2e4l5wQemaMT4tLWJ_u-138" value="&lt;font style=&quot;font-size: 11px;&quot;&gt;Лечение назначено&lt;/font&gt;" style="points=[[0.145,0.145,0],[0.5,0,0],[0.855,0.145,0],[1,0.5,0],[0.855,0.855,0],[0.5,1,0],[0.145,0.855,0],[0,0.5,0]];shape=mxgraph.bpmn.event;html=1;verticalLabelPosition=bottom;labelBackgroundColor=#ffffff;verticalAlign=top;align=center;perimeter=ellipsePerimeter;outlineConnect=0;aspect=fixed;outline=catching;symbol=message;" parent="U2e4l5wQemaMT4tLWJ_u-122" vertex="1">
          <mxGeometry x="2565" y="100" width="50" height="50" as="geometry" />
        </mxCell>
        <mxCell id="fnF3ptjWUz3oON4goJw0-12" style="edgeStyle=orthogonalEdgeStyle;rounded=0;orthogonalLoop=1;jettySize=auto;html=1;" parent="U2e4l5wQemaMT4tLWJ_u-122" source="U2e4l5wQemaMT4tLWJ_u-138" target="U2e4l5wQemaMT4tLWJ_u-120" edge="1">
          <mxGeometry relative="1" as="geometry" />
        </mxCell>
        <mxCell id="U2e4l5wQemaMT4tLWJ_u-162" style="edgeStyle=orthogonalEdgeStyle;rounded=0;orthogonalLoop=1;jettySize=auto;html=1;dashed=1;exitX=0.5;exitY=1;exitDx=0;exitDy=0;exitPerimeter=0;entryX=0.5;entryY=0;entryDx=0;entryDy=0;entryPerimeter=0;startArrow=oval;startFill=0;endArrow=block;endFill=0;" parent="1" source="U2e4l5wQemaMT4tLWJ_u-124" edge="1">
          <mxGeometry relative="1" as="geometry">
            <mxPoint x="65" y="-464.99999999999955" as="targetPoint" />
            <Array as="points">
              <mxPoint x="200" y="-910" />
              <mxPoint x="200" y="-810" />
              <mxPoint x="65" y="-810" />
            </Array>
          </mxGeometry>
        </mxCell>
        <mxCell id="U2e4l5wQemaMT4tLWJ_u-165" style="edgeStyle=orthogonalEdgeStyle;rounded=0;orthogonalLoop=1;jettySize=auto;html=1;fontSize=24;fontColor=#000000;entryX=0.5;entryY=1;entryDx=0;entryDy=0;entryPerimeter=0;dashed=1;startArrow=oval;startFill=0;endArrow=block;endFill=0;" parent="1" source="U2e4l5wQemaMT4tLWJ_u-97" target="U2e4l5wQemaMT4tLWJ_u-136" edge="1">
          <mxGeometry relative="1" as="geometry">
            <Array as="points">
              <mxPoint x="245" y="-730" />
              <mxPoint x="400" y="-730" />
            </Array>
            <mxPoint x="500" y="-290" as="targetPoint" />
          </mxGeometry>
        </mxCell>
        <mxCell id="U2e4l5wQemaMT4tLWJ_u-166" style="edgeStyle=orthogonalEdgeStyle;rounded=0;orthogonalLoop=1;jettySize=auto;html=1;entryX=0.5;entryY=1;entryDx=0;entryDy=0;entryPerimeter=0;startArrow=oval;startFill=0;endArrow=block;endFill=0;dashed=1;" parent="1" source="U2e4l5wQemaMT4tLWJ_u-89" target="U2e4l5wQemaMT4tLWJ_u-140" edge="1">
          <mxGeometry relative="1" as="geometry" />
        </mxCell>
        <mxCell id="U2e4l5wQemaMT4tLWJ_u-167" style="edgeStyle=orthogonalEdgeStyle;rounded=0;orthogonalLoop=1;jettySize=auto;html=1;entryX=0.5;entryY=1;entryDx=0;entryDy=0;entryPerimeter=0;startArrow=oval;startFill=0;endArrow=block;endFill=0;dashed=1;" parent="1" source="U2e4l5wQemaMT4tLWJ_u-95" target="U2e4l5wQemaMT4tLWJ_u-154" edge="1">
          <mxGeometry relative="1" as="geometry" />
        </mxCell>
        <mxCell id="U2e4l5wQemaMT4tLWJ_u-168" style="edgeStyle=orthogonalEdgeStyle;rounded=0;orthogonalLoop=1;jettySize=auto;html=1;dashed=1;startArrow=oval;startFill=0;endArrow=block;endFill=0;" parent="1" source="U2e4l5wQemaMT4tLWJ_u-150" target="U2e4l5wQemaMT4tLWJ_u-103" edge="1">
          <mxGeometry relative="1" as="geometry" />
        </mxCell>
        <mxCell id="U2e4l5wQemaMT4tLWJ_u-169" style="edgeStyle=orthogonalEdgeStyle;rounded=0;orthogonalLoop=1;jettySize=auto;html=1;dashed=1;startArrow=oval;startFill=0;endArrow=block;endFill=0;" parent="1" source="U2e4l5wQemaMT4tLWJ_u-144" target="U2e4l5wQemaMT4tLWJ_u-102" edge="1">
          <mxGeometry relative="1" as="geometry" />
        </mxCell>
        <mxCell id="11LNZt_Ikpmv0-nrx-_9-1" style="edgeStyle=orthogonalEdgeStyle;rounded=0;orthogonalLoop=1;jettySize=auto;html=1;dashed=1;" parent="1" source="U2e4l5wQemaMT4tLWJ_u-113" target="U2e4l5wQemaMT4tLWJ_u-138" edge="1">
          <mxGeometry relative="1" as="geometry" />
        </mxCell>
        <mxCell id="o02lefGdUesBg86nBkZD-1" style="edgeStyle=orthogonalEdgeStyle;rounded=0;orthogonalLoop=1;jettySize=auto;html=1;dashed=1;" parent="1" source="U2e4l5wQemaMT4tLWJ_u-128" target="bgzB-QOVBe--87YR9fQm-1" edge="1">
          <mxGeometry relative="1" as="geometry" />
        </mxCell>
      </root>
    </mxGraphModel>
  </diagram>
  <diagram id="anxewemBDnC__M29I5zN" name="UML State Machine Diagram">
    <mxGraphModel dx="2243" dy="1989" grid="1" gridSize="10" guides="1" tooltips="1" connect="1" arrows="1" fold="1" page="1" pageScale="1" pageWidth="827" pageHeight="1169" math="0" shadow="0">
      <root>
        <mxCell id="0" />
        <mxCell id="1" parent="0" />
        <mxCell id="k36WYlumH__hazgdGmS9-1" value="&lt;h1&gt;&lt;font style=&quot;font-size: 40px;&quot;&gt;Задание&lt;/font&gt;&lt;/h1&gt;&lt;p style=&quot;font-size: 20px;&quot;&gt;&lt;font style=&quot;font-size: 20px;&quot;&gt;Составьте диаграмму состояний в нотации UML State Machine Diagram.&lt;/font&gt;&lt;/p&gt;&lt;p style=&quot;font-size: 20px;&quot;&gt;&lt;font style=&quot;font-size: 20px;&quot;&gt;1. Проанализируйте состояния представленные в заметках Айгуль по описанию процесса. Добавьте полученные состояния на вашу диаграмму.&amp;nbsp;&lt;/font&gt;&lt;/p&gt;&lt;p style=&quot;font-size: 20px;&quot;&gt;&lt;font style=&quot;font-size: 20px;&quot;&gt;2. Отметьте начальное и конечное состояние системы.&lt;/font&gt;&lt;/p&gt;&lt;p style=&quot;font-size: 20px;&quot;&gt;&lt;font style=&quot;font-size: 20px;&quot;&gt;3. Изобразите переходы между состояниями, не забудьте подписать события, по которому объекты меняют свое состояние.&lt;/font&gt;&lt;/p&gt;&lt;p style=&quot;font-size: 20px;&quot;&gt;&lt;font style=&quot;font-size: 20px;&quot;&gt;4.Если вам не хватает информации в задании, то вы можете ее самостоятельно добавить в виде допущения.&lt;/font&gt;&lt;/p&gt;&lt;p style=&quot;font-size: 20px;&quot;&gt;&lt;i&gt;&lt;font style=&quot;font-size: 20px;&quot;&gt;Помните, что вы всегда можете оставить дополнительную информацию со своими размышлениями ревьюеру в виде пометок. Просто возьмите одну из карточек ниже.&amp;nbsp;&lt;/font&gt;&lt;/i&gt;&lt;/p&gt;&lt;p style=&quot;font-size: 20px;&quot;&gt;&lt;font style=&quot;font-size: 20px;&quot;&gt;5. Когда диаграмма состояний будет готова, переходите к вкладке №3 для составления диаграммы BPMN с учетом автоматизации записи на прием в приложении.&lt;/font&gt;&lt;/p&gt;" style="text;html=1;strokeColor=#82b366;fillColor=#d5e8d4;spacing=5;spacingTop=-20;whiteSpace=wrap;overflow=hidden;rounded=0;fontSize=16;" parent="1" vertex="1">
          <mxGeometry x="-800" y="-1140" width="600" height="640" as="geometry" />
        </mxCell>
        <mxCell id="k36WYlumH__hazgdGmS9-6" value="&lt;h1 style=&quot;font-size: 20px;&quot;&gt;&lt;font style=&quot;font-size: 20px;&quot;&gt;Заметка для ревьюера&lt;/font&gt;&lt;/h1&gt;&lt;p style=&quot;font-size: 20px;&quot;&gt;&lt;font style=&quot;font-size: 20px;&quot;&gt;Текст заметки&lt;/font&gt;&lt;/p&gt;" style="text;html=1;strokeColor=#d6b656;fillColor=#fff2cc;spacing=5;spacingTop=-20;whiteSpace=wrap;overflow=hidden;rounded=0;fontSize=20;" parent="1" vertex="1">
          <mxGeometry x="-800" y="-480" width="370" height="170" as="geometry" />
        </mxCell>
        <mxCell id="jsrAVHCjhafaWHUzCKNp-2" value="&lt;h1 style=&quot;font-size: 20px;&quot;&gt;&lt;font style=&quot;font-size: 20px;&quot;&gt;Заметка для ревьюера&lt;/font&gt;&lt;/h1&gt;&lt;p style=&quot;font-size: 20px;&quot;&gt;&lt;font style=&quot;font-size: 20px;&quot;&gt;Текст заметки&lt;/font&gt;&lt;/p&gt;" style="text;html=1;strokeColor=#d6b656;fillColor=#fff2cc;spacing=5;spacingTop=-20;whiteSpace=wrap;overflow=hidden;rounded=0;fontSize=20;" parent="1" vertex="1">
          <mxGeometry x="-790" y="-470" width="370" height="170" as="geometry" />
        </mxCell>
        <mxCell id="jsrAVHCjhafaWHUzCKNp-3" value="&lt;h1 style=&quot;font-size: 20px;&quot;&gt;&lt;font style=&quot;font-size: 20px;&quot;&gt;Заметка для ревьюера&lt;/font&gt;&lt;/h1&gt;&lt;p style=&quot;font-size: 20px;&quot;&gt;&lt;font style=&quot;font-size: 20px;&quot;&gt;Текст заметки&lt;/font&gt;&lt;/p&gt;" style="text;html=1;strokeColor=#d6b656;fillColor=#fff2cc;spacing=5;spacingTop=-20;whiteSpace=wrap;overflow=hidden;rounded=0;fontSize=20;" parent="1" vertex="1">
          <mxGeometry x="-780" y="-460" width="370" height="170" as="geometry" />
        </mxCell>
        <mxCell id="kYsYnL-yQ8s4X1UlHeMC-1" style="edgeStyle=orthogonalEdgeStyle;rounded=0;orthogonalLoop=1;jettySize=auto;html=1;exitX=1;exitY=0.5;exitDx=0;exitDy=0;" parent="1" source="_Rv6r5MsJYFK4DdHIPEn-1" target="kYsYnL-yQ8s4X1UlHeMC-2" edge="1">
          <mxGeometry relative="1" as="geometry">
            <mxPoint x="220" y="-1075" as="targetPoint" />
          </mxGeometry>
        </mxCell>
        <mxCell id="_Rv6r5MsJYFK4DdHIPEn-1" value="" style="ellipse;fillColor=strokeColor;html=1;" parent="1" vertex="1">
          <mxGeometry x="70" y="-1090" width="30" height="30" as="geometry" />
        </mxCell>
        <mxCell id="Dv3TWfl4igqhrYlxJDMb-1" style="edgeStyle=orthogonalEdgeStyle;rounded=0;orthogonalLoop=1;jettySize=auto;html=1;" parent="1" source="kYsYnL-yQ8s4X1UlHeMC-2" target="Dv3TWfl4igqhrYlxJDMb-2" edge="1">
          <mxGeometry relative="1" as="geometry">
            <mxPoint x="460" y="-1075" as="targetPoint" />
          </mxGeometry>
        </mxCell>
        <mxCell id="kYsYnL-yQ8s4X1UlHeMC-2" value="Создана заявка на прием" style="html=1;align=center;verticalAlign=top;rounded=1;absoluteArcSize=1;arcSize=10;dashed=0;whiteSpace=wrap;" parent="1" vertex="1">
          <mxGeometry x="170" y="-1095" width="140" height="40" as="geometry" />
        </mxCell>
        <mxCell id="Dv3TWfl4igqhrYlxJDMb-10" style="edgeStyle=orthogonalEdgeStyle;rounded=0;orthogonalLoop=1;jettySize=auto;html=1;entryX=0.5;entryY=0;entryDx=0;entryDy=0;" parent="1" source="Dv3TWfl4igqhrYlxJDMb-2" edge="1">
          <mxGeometry relative="1" as="geometry">
            <mxPoint x="755" y="-890" as="targetPoint" />
          </mxGeometry>
        </mxCell>
        <mxCell id="Dv3TWfl4igqhrYlxJDMb-11" style="edgeStyle=orthogonalEdgeStyle;rounded=0;orthogonalLoop=1;jettySize=auto;html=1;" parent="1" source="Dv3TWfl4igqhrYlxJDMb-2" edge="1">
          <mxGeometry relative="1" as="geometry">
            <mxPoint x="530" y="-800" as="targetPoint" />
          </mxGeometry>
        </mxCell>
        <mxCell id="Dv3TWfl4igqhrYlxJDMb-2" value="Ожидает подтверждения" style="html=1;align=center;verticalAlign=top;rounded=1;absoluteArcSize=1;arcSize=10;dashed=0;whiteSpace=wrap;" parent="1" vertex="1">
          <mxGeometry x="460" y="-1095" width="140" height="40" as="geometry" />
        </mxCell>
        <mxCell id="Dv3TWfl4igqhrYlxJDMb-7" value="Не подтверждена" style="text;html=1;align=center;verticalAlign=middle;resizable=0;points=[];autosize=1;strokeColor=none;fillColor=none;" parent="1" vertex="1">
          <mxGeometry x="620" y="-1100" width="120" height="30" as="geometry" />
        </mxCell>
        <mxCell id="Dv3TWfl4igqhrYlxJDMb-12" value="Подтверждена" style="text;html=1;align=center;verticalAlign=middle;resizable=0;points=[];autosize=1;strokeColor=none;fillColor=none;rotation=270;" parent="1" vertex="1">
          <mxGeometry x="465" y="-952" width="110" height="30" as="geometry" />
        </mxCell>
        <mxCell id="W9NTnQSu3ZXgfaOIR-1--5" style="edgeStyle=orthogonalEdgeStyle;rounded=0;orthogonalLoop=1;jettySize=auto;html=1;" parent="1" source="Dv3TWfl4igqhrYlxJDMb-13" target="W9NTnQSu3ZXgfaOIR-1--4" edge="1">
          <mxGeometry relative="1" as="geometry" />
        </mxCell>
        <mxCell id="Dv3TWfl4igqhrYlxJDMb-13" value="Заявка подтверждена" style="html=1;align=center;verticalAlign=top;rounded=1;absoluteArcSize=1;arcSize=10;dashed=0;whiteSpace=wrap;" parent="1" vertex="1">
          <mxGeometry x="470" y="-800" width="140" height="40" as="geometry" />
        </mxCell>
        <mxCell id="bEc0b-bykpyUCHrqdfQ6-2" value="Администратор &lt;br&gt;принимает заявку" style="text;html=1;align=center;verticalAlign=middle;resizable=0;points=[];autosize=1;strokeColor=none;fillColor=none;" parent="1" vertex="1">
          <mxGeometry x="320" y="-1110" width="120" height="40" as="geometry" />
        </mxCell>
        <mxCell id="W9NTnQSu3ZXgfaOIR-1--3" style="edgeStyle=orthogonalEdgeStyle;rounded=0;orthogonalLoop=1;jettySize=auto;html=1;entryX=0.5;entryY=0;entryDx=0;entryDy=0;" parent="1" source="W9NTnQSu3ZXgfaOIR-1--1" target="W9NTnQSu3ZXgfaOIR-1--2" edge="1">
          <mxGeometry relative="1" as="geometry" />
        </mxCell>
        <mxCell id="W9NTnQSu3ZXgfaOIR-1--1" value="Заявка отменена" style="html=1;align=center;verticalAlign=top;rounded=1;absoluteArcSize=1;arcSize=10;dashed=0;whiteSpace=wrap;" parent="1" vertex="1">
          <mxGeometry x="680" y="-890" width="140" height="40" as="geometry" />
        </mxCell>
        <mxCell id="W9NTnQSu3ZXgfaOIR-1--2" value="" style="shape=sumEllipse;perimeter=ellipsePerimeter;html=1;backgroundOutline=1;" parent="1" vertex="1">
          <mxGeometry x="735" y="-770" width="30" height="30" as="geometry" />
        </mxCell>
        <mxCell id="W9NTnQSu3ZXgfaOIR-1--4" value="Статус заявки изменен на &quot;В работе&quot;" style="html=1;align=center;verticalAlign=top;rounded=1;absoluteArcSize=1;arcSize=10;dashed=0;whiteSpace=wrap;" parent="1" vertex="1">
          <mxGeometry x="205" y="-800" width="140" height="40" as="geometry" />
        </mxCell>
        <mxCell id="W9NTnQSu3ZXgfaOIR-1--6" value="Пациент &lt;br&gt;пришел на прием" style="text;html=1;align=center;verticalAlign=middle;resizable=0;points=[];autosize=1;strokeColor=none;fillColor=none;" parent="1" vertex="1">
          <mxGeometry x="345" y="-820" width="120" height="40" as="geometry" />
        </mxCell>
        <mxCell id="W9NTnQSu3ZXgfaOIR-1--11" style="edgeStyle=orthogonalEdgeStyle;rounded=0;orthogonalLoop=1;jettySize=auto;html=1;" parent="1" source="W9NTnQSu3ZXgfaOIR-1--7" target="W9NTnQSu3ZXgfaOIR-1--10" edge="1">
          <mxGeometry relative="1" as="geometry" />
        </mxCell>
        <mxCell id="W9NTnQSu3ZXgfaOIR-1--7" value="Прием завершен" style="html=1;align=center;verticalAlign=top;rounded=1;absoluteArcSize=1;arcSize=10;dashed=0;whiteSpace=wrap;" parent="1" vertex="1">
          <mxGeometry x="40" y="-880" width="140" height="40" as="geometry" />
        </mxCell>
        <mxCell id="W9NTnQSu3ZXgfaOIR-1--8" style="edgeStyle=orthogonalEdgeStyle;rounded=0;orthogonalLoop=1;jettySize=auto;html=1;entryX=0.1;entryY=1.025;entryDx=0;entryDy=0;entryPerimeter=0;" parent="1" source="W9NTnQSu3ZXgfaOIR-1--4" target="W9NTnQSu3ZXgfaOIR-1--7" edge="1">
          <mxGeometry relative="1" as="geometry" />
        </mxCell>
        <mxCell id="W9NTnQSu3ZXgfaOIR-1--9" value="Врач ставит диагноз" style="text;html=1;align=center;verticalAlign=middle;resizable=0;points=[];autosize=1;strokeColor=none;fillColor=none;" parent="1" vertex="1">
          <mxGeometry x="60" y="-815" width="140" height="30" as="geometry" />
        </mxCell>
        <mxCell id="W9NTnQSu3ZXgfaOIR-1--10" value="" style="ellipse;html=1;shape=endState;fillColor=strokeColor;" parent="1" vertex="1">
          <mxGeometry x="95" y="-970" width="30" height="30" as="geometry" />
        </mxCell>
      </root>
    </mxGraphModel>
  </diagram>
  <diagram id="hYoqlKqIXTMq-99qZDfW" name="BPMN TO-BE">
    <mxGraphModel dx="2176" dy="1950" grid="1" gridSize="10" guides="1" tooltips="1" connect="1" arrows="1" fold="1" page="1" pageScale="1" pageWidth="827" pageHeight="1169" math="0" shadow="0">
      <root>
        <mxCell id="0" />
        <mxCell id="1" parent="0" />
        <mxCell id="3uRfeUQBPMhpF3My-20E-1" value="&lt;font style=&quot;font-size: 24px;&quot;&gt;Элементы для составления диаграммы&amp;nbsp;&lt;/font&gt;" style="rounded=0;whiteSpace=wrap;html=1;fontSize=20;align=center;verticalAlign=top;" parent="1" vertex="1">
          <mxGeometry x="-90" y="-1140" width="980" height="530" as="geometry" />
        </mxCell>
        <mxCell id="fG3Fj9UThi-FpCICufKl-1" value="&lt;h1&gt;&lt;font style=&quot;font-size: 40px;&quot;&gt;Задание&lt;/font&gt;&lt;/h1&gt;&lt;p style=&quot;font-size: 20px;&quot;&gt;&lt;font style=&quot;font-size: 20px;&quot;&gt;Теперь необходимо составить диаграмму бизнес-процесса с учетом автоматизации записи на приём к врачу в нотации BPMN.&lt;/font&gt;&lt;/p&gt;&lt;p style=&quot;font-size: 20px;&quot;&gt;&lt;font style=&quot;font-size: 20px;&quot;&gt;1. Проанализируйте диаграмму процесса AS-IS на вкладке №1.&amp;nbsp;&lt;/font&gt;&lt;/p&gt;&lt;p style=&quot;font-size: 20px;&quot;&gt;&lt;font style=&quot;font-size: 20px;&quot;&gt;2. Вам необходимо составить диаграмму TO-BE в нотации BPMN при этом учесть потребность клиники в создании нового удобного и функционального приложения для пациентов, в котором необходимо реализовать запись на приём к врачу.&lt;/font&gt;&lt;/p&gt;&lt;p style=&quot;font-size: 20px;&quot;&gt;&lt;font style=&quot;font-size: 20px;&quot;&gt;3. Начните составление диаграммы с выделения ролей. Возьмите за основу диаграмму AS-IS, с которой вы работали на вкладке №1.&lt;/font&gt;&lt;/p&gt;&lt;p style=&quot;font-size: 20px;&quot;&gt;&lt;font style=&quot;font-size: 20px;&quot;&gt;&lt;i&gt;Подсказка: в ней должно остаться два дорожки. Роль Администратора в диаграмме TO-BE должна отсутствовать.&amp;nbsp;&lt;/i&gt;&lt;/font&gt;&lt;/p&gt;&lt;p style=&quot;font-size: 20px;&quot;&gt;&lt;font style=&quot;font-size: 20px;&quot;&gt;4. Ниже вам представлены задачи, события и шлюзы, который вы можете использовать в диаграмме. Вам необходимо в правильной последовательности расставить представленные элементы и корректно соединить потоками.&lt;/font&gt;&lt;/p&gt;&lt;p style=&quot;font-size: 20px;&quot;&gt;&lt;font style=&quot;font-size: 20px;&quot;&gt;5.&amp;nbsp;&lt;/font&gt;Если вам не хватает информации в задании, то вы можете ее самостоятельно добавить в виде допущения.&lt;/p&gt;&lt;p style=&quot;font-size: 20px;&quot;&gt;&lt;font style=&quot;font-size: 20px;&quot;&gt;&lt;i&gt;Помните, что вы всегда можете оставить дополнительную информацию со своими размышлениями ревьюеру в виде пометок. Просто возьмите одну из карточек ниже.&amp;nbsp;&lt;/i&gt;&lt;br&gt;&lt;/font&gt;&lt;/p&gt;&lt;p style=&quot;font-size: 20px;&quot;&gt;&lt;font style=&quot;font-size: 20px;&quot;&gt;6. Готовый файл со всеми вкладками сохраните в формате .drawio и отправьте ревьюеру на проверку.&lt;/font&gt;&lt;/p&gt;&lt;font style=&quot;font-size: 20px;&quot;&gt;&lt;br&gt;&lt;/font&gt;&lt;p style=&quot;font-size: 20px;&quot;&gt;&lt;br&gt;&lt;/p&gt;" style="text;html=1;strokeColor=#82b366;fillColor=#d5e8d4;spacing=5;spacingTop=-20;whiteSpace=wrap;overflow=hidden;rounded=0;fontSize=16;" parent="1" vertex="1">
          <mxGeometry x="-800" y="-1140" width="650" height="780" as="geometry" />
        </mxCell>
        <mxCell id="Z_dL41q322nzcqzUwBb9-5" value="&lt;h1 style=&quot;font-size: 20px;&quot;&gt;&lt;font style=&quot;font-size: 20px;&quot;&gt;Заметка для ревьюера&lt;/font&gt;&lt;/h1&gt;&lt;p style=&quot;font-size: 20px;&quot;&gt;&lt;font style=&quot;font-size: 20px;&quot;&gt;Текст заметки&lt;/font&gt;&lt;/p&gt;" style="text;html=1;strokeColor=#d6b656;fillColor=#fff2cc;spacing=5;spacingTop=-20;whiteSpace=wrap;overflow=hidden;rounded=0;fontSize=20;" parent="1" vertex="1">
          <mxGeometry x="-800" y="-340" width="370" height="170" as="geometry" />
        </mxCell>
        <mxCell id="ZUP1OzC_5cRaVZ1VSMOz-1" value="&lt;h1 style=&quot;font-size: 20px;&quot;&gt;&lt;font style=&quot;font-size: 20px;&quot;&gt;Заметка для ревьюера&lt;/font&gt;&lt;/h1&gt;&lt;p style=&quot;font-size: 20px;&quot;&gt;&lt;font style=&quot;font-size: 20px;&quot;&gt;Текст заметки&lt;/font&gt;&lt;/p&gt;" style="text;html=1;strokeColor=#d6b656;fillColor=#fff2cc;spacing=5;spacingTop=-20;whiteSpace=wrap;overflow=hidden;rounded=0;fontSize=20;" parent="1" vertex="1">
          <mxGeometry x="-790" y="-330" width="370" height="170" as="geometry" />
        </mxCell>
        <mxCell id="ZUP1OzC_5cRaVZ1VSMOz-2" value="&lt;h1 style=&quot;font-size: 20px;&quot;&gt;&lt;font style=&quot;font-size: 20px;&quot;&gt;Заметка для ревьюера&lt;/font&gt;&lt;/h1&gt;&lt;p style=&quot;font-size: 20px;&quot;&gt;&lt;font style=&quot;font-size: 20px;&quot;&gt;Текст заметки&lt;/font&gt;&lt;/p&gt;" style="text;html=1;strokeColor=#d6b656;fillColor=#fff2cc;spacing=5;spacingTop=-20;whiteSpace=wrap;overflow=hidden;rounded=0;fontSize=20;" parent="1" vertex="1">
          <mxGeometry x="-780" y="-320" width="370" height="170" as="geometry" />
        </mxCell>
        <mxCell id="ZUP1OzC_5cRaVZ1VSMOz-3" value="&lt;h1 style=&quot;font-size: 20px;&quot;&gt;&lt;font style=&quot;font-size: 20px;&quot;&gt;Заметка для ревьюера&lt;/font&gt;&lt;/h1&gt;&lt;p style=&quot;font-size: 20px;&quot;&gt;&lt;font style=&quot;font-size: 20px;&quot;&gt;Текст заметки&lt;/font&gt;&lt;/p&gt;" style="text;html=1;strokeColor=#d6b656;fillColor=#fff2cc;spacing=5;spacingTop=-20;whiteSpace=wrap;overflow=hidden;rounded=0;fontSize=20;" parent="1" vertex="1">
          <mxGeometry x="-770" y="-310" width="370" height="170" as="geometry" />
        </mxCell>
        <mxCell id="ZUP1OzC_5cRaVZ1VSMOz-20" value="&lt;font style=&quot;font-size: 11px;&quot;&gt;Плохое &lt;br&gt;самочувствие&lt;/font&gt;" style="points=[[0.145,0.145,0],[0.5,0,0],[0.855,0.145,0],[1,0.5,0],[0.855,0.855,0],[0.5,1,0],[0.145,0.855,0],[0,0.5,0]];shape=mxgraph.bpmn.event;html=1;verticalLabelPosition=bottom;labelBackgroundColor=#ffffff;verticalAlign=top;align=center;perimeter=ellipsePerimeter;outlineConnect=0;aspect=fixed;outline=standard;symbol=general;" parent="1" vertex="1">
          <mxGeometry x="64" y="-840" width="50" height="50" as="geometry" />
        </mxCell>
        <mxCell id="x_Vbej6sgpwdbN5jdDDm-1" value="Оформлен&lt;br style=&quot;border-color: var(--border-color);&quot;&gt;&lt;span style=&quot;border-color: var(--border-color);&quot;&gt;протокол осмотра&lt;/span&gt;&lt;span style=&quot;background-color: rgb(248, 249, 250);&quot;&gt;&lt;br&gt;&lt;/span&gt;" style="points=[[0.145,0.145,0],[0.5,0,0],[0.855,0.145,0],[1,0.5,0],[0.855,0.855,0],[0.5,1,0],[0.145,0.855,0],[0,0.5,0]];shape=mxgraph.bpmn.event;html=1;verticalLabelPosition=bottom;labelBackgroundColor=#ffffff;verticalAlign=top;align=center;perimeter=ellipsePerimeter;outlineConnect=0;aspect=fixed;outline=end;symbol=terminate2;fontSize=11;" parent="1" vertex="1">
          <mxGeometry x="160" y="-840" width="50" height="50" as="geometry" />
        </mxCell>
        <mxCell id="ZUP1OzC_5cRaVZ1VSMOz-7" value="Принять пациента " style="points=[[0.25,0,0],[0.5,0,0],[0.75,0,0],[1,0.25,0],[1,0.5,0],[1,0.75,0],[0.75,1,0],[0.5,1,0],[0.25,1,0],[0,0.75,0],[0,0.5,0],[0,0.25,0]];shape=mxgraph.bpmn.task;whiteSpace=wrap;rectStyle=rounded;size=10;taskMarker=abstract;fontSize=11;" parent="1" vertex="1">
          <mxGeometry x="440" y="-1050" width="120" height="80" as="geometry" />
        </mxCell>
        <mxCell id="ZUP1OzC_5cRaVZ1VSMOz-8" value="Назначить лечение" style="points=[[0.25,0,0],[0.5,0,0],[0.75,0,0],[1,0.25,0],[1,0.5,0],[1,0.75,0],[0.75,1,0],[0.5,1,0],[0.25,1,0],[0,0.75,0],[0,0.5,0],[0,0.25,0]];shape=mxgraph.bpmn.task;whiteSpace=wrap;rectStyle=rounded;size=10;taskMarker=abstract;fontSize=11;" parent="1" vertex="1">
          <mxGeometry x="440" y="-780" width="120" height="80" as="geometry" />
        </mxCell>
        <mxCell id="ZUP1OzC_5cRaVZ1VSMOz-10" value="&lt;font style=&quot;font-size: 11px;&quot;&gt;Диагноз поставлен&lt;/font&gt;" style="points=[[0.145,0.145,0],[0.5,0,0],[0.855,0.145,0],[1,0.5,0],[0.855,0.855,0],[0.5,1,0],[0.145,0.855,0],[0,0.5,0]];shape=mxgraph.bpmn.event;html=1;verticalLabelPosition=bottom;labelBackgroundColor=#ffffff;verticalAlign=top;align=center;perimeter=ellipsePerimeter;outlineConnect=0;aspect=fixed;outline=throwing;symbol=general;" parent="1" vertex="1">
          <mxGeometry x="-40" y="-750" width="50" height="50" as="geometry" />
        </mxCell>
        <mxCell id="ZUP1OzC_5cRaVZ1VSMOz-11" value="Поставить диагноз" style="points=[[0.25,0,0],[0.5,0,0],[0.75,0,0],[1,0.25,0],[1,0.5,0],[1,0.75,0],[0.75,1,0],[0.5,1,0],[0.25,1,0],[0,0.75,0],[0,0.5,0],[0,0.25,0]];shape=mxgraph.bpmn.task;whiteSpace=wrap;rectStyle=rounded;size=10;taskMarker=abstract;isLoopSub=1;labelBackgroundColor=#FFFFFF;fontSize=11;fontColor=#000000;fillColor=#FFFFFF;" parent="1" vertex="1">
          <mxGeometry x="300" y="-780" width="120" height="80" as="geometry" />
        </mxCell>
        <mxCell id="x_Vbej6sgpwdbN5jdDDm-3" value="&lt;font style=&quot;font-size: 11px;&quot;&gt;Лечение назначено&lt;/font&gt;" style="points=[[0.145,0.145,0],[0.5,0,0],[0.855,0.145,0],[1,0.5,0],[0.855,0.855,0],[0.5,1,0],[0.145,0.855,0],[0,0.5,0]];shape=mxgraph.bpmn.event;html=1;verticalLabelPosition=bottom;labelBackgroundColor=#ffffff;verticalAlign=top;align=center;perimeter=ellipsePerimeter;outlineConnect=0;aspect=fixed;outline=catching;symbol=message;" parent="1" vertex="1">
          <mxGeometry x="160" y="-1070" width="50" height="50" as="geometry" />
        </mxCell>
        <mxCell id="fIHDFCNurajuqBFPYW8o-1" value="Пациент&lt;br style=&quot;border-color: var(--border-color);&quot;&gt;пришел на приём" style="points=[[0.145,0.145,0],[0.5,0,0],[0.855,0.145,0],[1,0.5,0],[0.855,0.855,0],[0.5,1,0],[0.145,0.855,0],[0,0.5,0]];shape=mxgraph.bpmn.event;html=1;verticalLabelPosition=bottom;labelBackgroundColor=#ffffff;verticalAlign=top;align=center;perimeter=ellipsePerimeter;outlineConnect=0;aspect=fixed;outline=standard;symbol=message;fontSize=11;" parent="1" vertex="1">
          <mxGeometry x="160" y="-750" width="50" height="50" as="geometry" />
        </mxCell>
        <mxCell id="Xdgcz5oX3sqzTW6uyKRR-1" value="Пациент" style="swimlane;html=1;startSize=20;horizontal=0;" parent="1" vertex="1">
          <mxGeometry x="-90" y="-490" width="3240" height="770" as="geometry" />
        </mxCell>
        <mxCell id="Xdgcz5oX3sqzTW6uyKRR-5" value="" style="points=[[0.145,0.145,0],[0.5,0,0],[0.855,0.145,0],[1,0.5,0],[0.855,0.855,0],[0.5,1,0],[0.145,0.855,0],[0,0.5,0]];shape=mxgraph.bpmn.event;html=1;verticalLabelPosition=bottom;labelBackgroundColor=#ffffff;verticalAlign=top;align=center;perimeter=ellipsePerimeter;outlineConnect=0;aspect=fixed;outline=standard;symbol=general;" parent="Xdgcz5oX3sqzTW6uyKRR-1" vertex="1">
          <mxGeometry x="45" y="145" width="50" height="50" as="geometry" />
        </mxCell>
        <mxCell id="Xdgcz5oX3sqzTW6uyKRR-6" value="&lt;font style=&quot;font-size: 11px;&quot;&gt;Плохое самочувствие&lt;/font&gt;" style="text;html=1;strokeColor=none;fillColor=none;align=center;verticalAlign=middle;whiteSpace=wrap;rounded=0;" parent="Xdgcz5oX3sqzTW6uyKRR-1" vertex="1">
          <mxGeometry x="40" y="205" width="60" height="30" as="geometry" />
        </mxCell>
        <mxCell id="KiWvkSHsAHADNvKO4F4k-1" value="Врач" style="swimlane;html=1;startSize=20;horizontal=0;" parent="Xdgcz5oX3sqzTW6uyKRR-1" vertex="1">
          <mxGeometry y="450" width="3240" height="320" as="geometry" />
        </mxCell>
        <mxCell id="KiWvkSHsAHADNvKO4F4k-2" style="edgeStyle=orthogonalEdgeStyle;rounded=0;orthogonalLoop=1;jettySize=auto;html=1;" parent="KiWvkSHsAHADNvKO4F4k-1" source="KiWvkSHsAHADNvKO4F4k-3" target="KiWvkSHsAHADNvKO4F4k-5" edge="1">
          <mxGeometry relative="1" as="geometry" />
        </mxCell>
        <mxCell id="KiWvkSHsAHADNvKO4F4k-3" value="Принять пациента " style="points=[[0.25,0,0],[0.5,0,0],[0.75,0,0],[1,0.25,0],[1,0.5,0],[1,0.75,0],[0.75,1,0],[0.5,1,0],[0.25,1,0],[0,0.75,0],[0,0.5,0],[0,0.25,0]];shape=mxgraph.bpmn.task;whiteSpace=wrap;rectStyle=rounded;size=10;taskMarker=abstract;fontSize=11;" parent="KiWvkSHsAHADNvKO4F4k-1" vertex="1">
          <mxGeometry x="2430" y="95" width="120" height="80" as="geometry" />
        </mxCell>
        <mxCell id="fMASFYerF9BftcZRiww8-1" style="edgeStyle=orthogonalEdgeStyle;rounded=0;orthogonalLoop=1;jettySize=auto;html=1;" parent="KiWvkSHsAHADNvKO4F4k-1" source="KiWvkSHsAHADNvKO4F4k-5" target="KiWvkSHsAHADNvKO4F4k-13" edge="1">
          <mxGeometry relative="1" as="geometry" />
        </mxCell>
        <mxCell id="KiWvkSHsAHADNvKO4F4k-5" value="Поставить диагноз" style="points=[[0.25,0,0],[0.5,0,0],[0.75,0,0],[1,0.25,0],[1,0.5,0],[1,0.75,0],[0.75,1,0],[0.5,1,0],[0.25,1,0],[0,0.75,0],[0,0.5,0],[0,0.25,0]];shape=mxgraph.bpmn.task;whiteSpace=wrap;rectStyle=rounded;size=10;taskMarker=abstract;isLoopSub=1;labelBackgroundColor=#FFFFFF;fontSize=11;fontColor=#000000;fillColor=#FFFFFF;" parent="KiWvkSHsAHADNvKO4F4k-1" vertex="1">
          <mxGeometry x="2590" y="95" width="120" height="80" as="geometry" />
        </mxCell>
        <mxCell id="fMASFYerF9BftcZRiww8-3" style="edgeStyle=orthogonalEdgeStyle;rounded=0;orthogonalLoop=1;jettySize=auto;html=1;" parent="KiWvkSHsAHADNvKO4F4k-1" source="KiWvkSHsAHADNvKO4F4k-7" target="KiWvkSHsAHADNvKO4F4k-12" edge="1">
          <mxGeometry relative="1" as="geometry">
            <mxPoint x="3170" y="135" as="targetPoint" />
          </mxGeometry>
        </mxCell>
        <mxCell id="KiWvkSHsAHADNvKO4F4k-7" value="Назначить лечение" style="points=[[0.25,0,0],[0.5,0,0],[0.75,0,0],[1,0.25,0],[1,0.5,0],[1,0.75,0],[0.75,1,0],[0.5,1,0],[0.25,1,0],[0,0.75,0],[0,0.5,0],[0,0.25,0]];shape=mxgraph.bpmn.task;whiteSpace=wrap;rectStyle=rounded;size=10;taskMarker=abstract;fontSize=11;" parent="KiWvkSHsAHADNvKO4F4k-1" vertex="1">
          <mxGeometry x="2855" y="95" width="120" height="80" as="geometry" />
        </mxCell>
        <mxCell id="KiWvkSHsAHADNvKO4F4k-10" style="edgeStyle=orthogonalEdgeStyle;rounded=0;orthogonalLoop=1;jettySize=auto;html=1;" parent="KiWvkSHsAHADNvKO4F4k-1" source="KiWvkSHsAHADNvKO4F4k-11" target="KiWvkSHsAHADNvKO4F4k-3" edge="1">
          <mxGeometry relative="1" as="geometry" />
        </mxCell>
        <mxCell id="KiWvkSHsAHADNvKO4F4k-11" value="Пациент&lt;br style=&quot;border-color: var(--border-color); font-size: 11px;&quot;&gt;&lt;span style=&quot;font-size: 11px;&quot;&gt;пришел на приём&lt;/span&gt;" style="points=[[0.145,0.145,0],[0.5,0,0],[0.855,0.145,0],[1,0.5,0],[0.855,0.855,0],[0.5,1,0],[0.145,0.855,0],[0,0.5,0]];shape=mxgraph.bpmn.event;html=1;verticalLabelPosition=bottom;labelBackgroundColor=#ffffff;verticalAlign=top;align=center;perimeter=ellipsePerimeter;outlineConnect=0;aspect=fixed;outline=catching;symbol=message;" parent="KiWvkSHsAHADNvKO4F4k-1" vertex="1">
          <mxGeometry x="2360" y="110" width="50" height="50" as="geometry" />
        </mxCell>
        <mxCell id="KiWvkSHsAHADNvKO4F4k-12" value="Оформлен&lt;br style=&quot;border-color: var(--border-color);&quot;&gt;протокол осмотра&lt;span style=&quot;background-color: rgb(248, 249, 250);&quot;&gt;&lt;br&gt;&lt;/span&gt;" style="points=[[0.145,0.145,0],[0.5,0,0],[0.855,0.145,0],[1,0.5,0],[0.855,0.855,0],[0.5,1,0],[0.145,0.855,0],[0,0.5,0]];shape=mxgraph.bpmn.event;html=1;verticalLabelPosition=bottom;labelBackgroundColor=#ffffff;verticalAlign=top;align=center;perimeter=ellipsePerimeter;outlineConnect=0;aspect=fixed;outline=end;symbol=terminate2;fontSize=11;" parent="KiWvkSHsAHADNvKO4F4k-1" vertex="1">
          <mxGeometry x="3110" y="110" width="50" height="50" as="geometry" />
        </mxCell>
        <mxCell id="fMASFYerF9BftcZRiww8-2" style="edgeStyle=orthogonalEdgeStyle;rounded=0;orthogonalLoop=1;jettySize=auto;html=1;" parent="KiWvkSHsAHADNvKO4F4k-1" source="KiWvkSHsAHADNvKO4F4k-13" target="KiWvkSHsAHADNvKO4F4k-7" edge="1">
          <mxGeometry relative="1" as="geometry" />
        </mxCell>
        <mxCell id="KiWvkSHsAHADNvKO4F4k-13" value="&lt;font style=&quot;font-size: 11px;&quot;&gt;Диагноз поставлен&lt;/font&gt;" style="points=[[0.145,0.145,0],[0.5,0,0],[0.855,0.145,0],[1,0.5,0],[0.855,0.855,0],[0.5,1,0],[0.145,0.855,0],[0,0.5,0]];shape=mxgraph.bpmn.event;html=1;verticalLabelPosition=bottom;labelBackgroundColor=#ffffff;verticalAlign=top;align=center;perimeter=ellipsePerimeter;outlineConnect=0;aspect=fixed;outline=throwing;symbol=general;" parent="KiWvkSHsAHADNvKO4F4k-1" vertex="1">
          <mxGeometry x="2760" y="110" width="50" height="50" as="geometry" />
        </mxCell>
        <mxCell id="dCi42sQDaCqDKefcPCm6-1" style="edgeStyle=orthogonalEdgeStyle;rounded=0;orthogonalLoop=1;jettySize=auto;html=1;" parent="Xdgcz5oX3sqzTW6uyKRR-1" source="ZUP1OzC_5cRaVZ1VSMOz-18" target="ZUP1OzC_5cRaVZ1VSMOz-41" edge="1">
          <mxGeometry relative="1" as="geometry" />
        </mxCell>
        <mxCell id="ZUP1OzC_5cRaVZ1VSMOz-18" value="Открыть приложение медицинского центра" style="points=[[0.25,0,0],[0.5,0,0],[0.75,0,0],[1,0.25,0],[1,0.5,0],[1,0.75,0],[0.75,1,0],[0.5,1,0],[0.25,1,0],[0,0.75,0],[0,0.5,0],[0,0.25,0]];shape=mxgraph.bpmn.task;whiteSpace=wrap;rectStyle=rounded;size=10;taskMarker=abstract;fontSize=11;" parent="Xdgcz5oX3sqzTW6uyKRR-1" vertex="1">
          <mxGeometry x="200" y="140" width="120" height="80" as="geometry" />
        </mxCell>
        <mxCell id="10YOD7rvQnCkMRQeK9fr-1" style="edgeStyle=orthogonalEdgeStyle;rounded=0;orthogonalLoop=1;jettySize=auto;html=1;entryX=0;entryY=0.375;entryDx=0;entryDy=0;entryPerimeter=0;" parent="Xdgcz5oX3sqzTW6uyKRR-1" source="Xdgcz5oX3sqzTW6uyKRR-5" target="ZUP1OzC_5cRaVZ1VSMOz-18" edge="1">
          <mxGeometry relative="1" as="geometry" />
        </mxCell>
        <mxCell id="ZUP1OzC_5cRaVZ1VSMOz-41" value="&lt;font style=&quot;font-size: 11px;&quot;&gt;Пациент был&lt;br&gt;зарегистрирован?&lt;/font&gt;" style="points=[[0.25,0.25,0],[0.5,0,0],[0.75,0.25,0],[1,0.5,0],[0.75,0.75,0],[0.5,1,0],[0.25,0.75,0],[0,0.5,0]];shape=mxgraph.bpmn.gateway2;html=1;verticalLabelPosition=bottom;labelBackgroundColor=#ffffff;verticalAlign=top;align=center;perimeter=rhombusPerimeter;outlineConnect=0;outline=none;symbol=none;gwType=exclusive;labelPosition=center;" parent="Xdgcz5oX3sqzTW6uyKRR-1" vertex="1">
          <mxGeometry x="420" y="155" width="50" height="50" as="geometry" />
        </mxCell>
        <mxCell id="ZUP1OzC_5cRaVZ1VSMOz-44" value="Авторизоваться" style="points=[[0.25,0,0],[0.5,0,0],[0.75,0,0],[1,0.25,0],[1,0.5,0],[1,0.75,0],[0.75,1,0],[0.5,1,0],[0.25,1,0],[0,0.75,0],[0,0.5,0],[0,0.25,0]];shape=mxgraph.bpmn.task;whiteSpace=wrap;rectStyle=rounded;size=10;taskMarker=abstract;fontSize=11;" parent="Xdgcz5oX3sqzTW6uyKRR-1" vertex="1">
          <mxGeometry x="690" y="50" width="120" height="80" as="geometry" />
        </mxCell>
        <mxCell id="4h4HWpRM9FPaz3vGasnu-6" style="edgeStyle=orthogonalEdgeStyle;rounded=0;orthogonalLoop=1;jettySize=auto;html=1;" parent="Xdgcz5oX3sqzTW6uyKRR-1" source="ZUP1OzC_5cRaVZ1VSMOz-46" target="ZUP1OzC_5cRaVZ1VSMOz-48" edge="1">
          <mxGeometry relative="1" as="geometry" />
        </mxCell>
        <mxCell id="ZUP1OzC_5cRaVZ1VSMOz-46" value="Зарегистрироваться" style="points=[[0.25,0,0],[0.5,0,0],[0.75,0,0],[1,0.25,0],[1,0.5,0],[1,0.75,0],[0.75,1,0],[0.5,1,0],[0.25,1,0],[0,0.75,0],[0,0.5,0],[0,0.25,0]];shape=mxgraph.bpmn.task;whiteSpace=wrap;rectStyle=rounded;size=10;taskMarker=abstract;fontSize=11;" parent="Xdgcz5oX3sqzTW6uyKRR-1" vertex="1">
          <mxGeometry x="540" y="250" width="120" height="80" as="geometry" />
        </mxCell>
        <mxCell id="dCi42sQDaCqDKefcPCm6-8" value="Нет" style="text;html=1;align=center;verticalAlign=middle;resizable=0;points=[];autosize=1;strokeColor=none;fillColor=none;" parent="Xdgcz5oX3sqzTW6uyKRR-1" vertex="1">
          <mxGeometry x="500" y="285" width="40" height="30" as="geometry" />
        </mxCell>
        <mxCell id="dCi42sQDaCqDKefcPCm6-7" value="Да" style="text;html=1;align=center;verticalAlign=middle;resizable=0;points=[];autosize=1;strokeColor=none;fillColor=none;" parent="Xdgcz5oX3sqzTW6uyKRR-1" vertex="1">
          <mxGeometry x="630" y="60" width="40" height="30" as="geometry" />
        </mxCell>
        <mxCell id="DVVzU8dCABACLeWUi4pz-2" style="edgeStyle=orthogonalEdgeStyle;rounded=0;orthogonalLoop=1;jettySize=auto;html=1;" parent="Xdgcz5oX3sqzTW6uyKRR-1" source="ZUP1OzC_5cRaVZ1VSMOz-48" target="ZUP1OzC_5cRaVZ1VSMOz-44" edge="1">
          <mxGeometry relative="1" as="geometry" />
        </mxCell>
        <mxCell id="ZUP1OzC_5cRaVZ1VSMOz-48" value="Ввести персональные данные" style="points=[[0.25,0,0],[0.5,0,0],[0.75,0,0],[1,0.25,0],[1,0.5,0],[1,0.75,0],[0.75,1,0],[0.5,1,0],[0.25,1,0],[0,0.75,0],[0,0.5,0],[0,0.25,0]];shape=mxgraph.bpmn.task;whiteSpace=wrap;rectStyle=rounded;size=10;taskMarker=abstract;fontSize=11;" parent="Xdgcz5oX3sqzTW6uyKRR-1" vertex="1">
          <mxGeometry x="690" y="250" width="120" height="80" as="geometry" />
        </mxCell>
        <mxCell id="4h4HWpRM9FPaz3vGasnu-2" style="edgeStyle=orthogonalEdgeStyle;rounded=0;orthogonalLoop=1;jettySize=auto;html=1;" parent="Xdgcz5oX3sqzTW6uyKRR-1" source="ZUP1OzC_5cRaVZ1VSMOz-23" target="ZUP1OzC_5cRaVZ1VSMOz-58" edge="1">
          <mxGeometry relative="1" as="geometry" />
        </mxCell>
        <mxCell id="ZUP1OzC_5cRaVZ1VSMOz-23" value="Выбрать филиал" style="points=[[0.25,0,0],[0.5,0,0],[0.75,0,0],[1,0.25,0],[1,0.5,0],[1,0.75,0],[0.75,1,0],[0.5,1,0],[0.25,1,0],[0,0.75,0],[0,0.5,0],[0,0.25,0]];shape=mxgraph.bpmn.task;whiteSpace=wrap;rectStyle=rounded;size=10;taskMarker=abstract;fontSize=11;" parent="Xdgcz5oX3sqzTW6uyKRR-1" vertex="1">
          <mxGeometry x="890" y="145" width="120" height="80" as="geometry" />
        </mxCell>
        <mxCell id="4h4HWpRM9FPaz3vGasnu-3" style="edgeStyle=orthogonalEdgeStyle;rounded=0;orthogonalLoop=1;jettySize=auto;html=1;" parent="Xdgcz5oX3sqzTW6uyKRR-1" source="ZUP1OzC_5cRaVZ1VSMOz-58" target="ZUP1OzC_5cRaVZ1VSMOz-25" edge="1">
          <mxGeometry relative="1" as="geometry" />
        </mxCell>
        <mxCell id="ZUP1OzC_5cRaVZ1VSMOz-58" value="Выбрать врача" style="points=[[0.25,0,0],[0.5,0,0],[0.75,0,0],[1,0.25,0],[1,0.5,0],[1,0.75,0],[0.75,1,0],[0.5,1,0],[0.25,1,0],[0,0.75,0],[0,0.5,0],[0,0.25,0]];shape=mxgraph.bpmn.task;whiteSpace=wrap;rectStyle=rounded;size=10;taskMarker=abstract;fontSize=11;" parent="Xdgcz5oX3sqzTW6uyKRR-1" vertex="1">
          <mxGeometry x="1050" y="145" width="120" height="80" as="geometry" />
        </mxCell>
        <mxCell id="4h4HWpRM9FPaz3vGasnu-4" style="edgeStyle=orthogonalEdgeStyle;rounded=0;orthogonalLoop=1;jettySize=auto;html=1;" parent="Xdgcz5oX3sqzTW6uyKRR-1" source="ZUP1OzC_5cRaVZ1VSMOz-25" target="ZUP1OzC_5cRaVZ1VSMOz-27" edge="1">
          <mxGeometry relative="1" as="geometry" />
        </mxCell>
        <mxCell id="ZUP1OzC_5cRaVZ1VSMOz-25" value="Выбрать дату и время" style="points=[[0.25,0,0],[0.5,0,0],[0.75,0,0],[1,0.25,0],[1,0.5,0],[1,0.75,0],[0.75,1,0],[0.5,1,0],[0.25,1,0],[0,0.75,0],[0,0.5,0],[0,0.25,0]];shape=mxgraph.bpmn.task;whiteSpace=wrap;rectStyle=rounded;size=10;taskMarker=abstract;fontSize=11;" parent="Xdgcz5oX3sqzTW6uyKRR-1" vertex="1">
          <mxGeometry x="1211" y="145" width="120" height="80" as="geometry" />
        </mxCell>
        <mxCell id="DXpGVZDMbWTeeaXU2TaH-2" style="edgeStyle=orthogonalEdgeStyle;rounded=0;orthogonalLoop=1;jettySize=auto;html=1;" parent="Xdgcz5oX3sqzTW6uyKRR-1" source="ZUP1OzC_5cRaVZ1VSMOz-27" target="fIHDFCNurajuqBFPYW8o-3" edge="1">
          <mxGeometry relative="1" as="geometry" />
        </mxCell>
        <mxCell id="ZUP1OzC_5cRaVZ1VSMOz-27" value="Записаться на приём" style="points=[[0.25,0,0],[0.5,0,0],[0.75,0,0],[1,0.25,0],[1,0.5,0],[1,0.75,0],[0.75,1,0],[0.5,1,0],[0.25,1,0],[0,0.75,0],[0,0.5,0],[0,0.25,0]];shape=mxgraph.bpmn.task;whiteSpace=wrap;rectStyle=rounded;size=10;taskMarker=abstract;fontSize=11;" parent="Xdgcz5oX3sqzTW6uyKRR-1" vertex="1">
          <mxGeometry x="1380" y="145" width="120" height="80" as="geometry" />
        </mxCell>
        <mxCell id="kc5MAHPjUGxLFdUptcbC-1" style="edgeStyle=orthogonalEdgeStyle;rounded=0;orthogonalLoop=1;jettySize=auto;html=1;" parent="Xdgcz5oX3sqzTW6uyKRR-1" source="fIHDFCNurajuqBFPYW8o-3" target="ZUP1OzC_5cRaVZ1VSMOz-30" edge="1">
          <mxGeometry relative="1" as="geometry" />
        </mxCell>
        <mxCell id="fIHDFCNurajuqBFPYW8o-3" value="За 1 день&lt;br style=&quot;border-color: var(--border-color);&quot;&gt;до назначенного&lt;br style=&quot;border-color: var(--border-color);&quot;&gt;приёма" style="points=[[0.145,0.145,0],[0.5,0,0],[0.855,0.145,0],[1,0.5,0],[0.855,0.855,0],[0.5,1,0],[0.145,0.855,0],[0,0.5,0]];shape=mxgraph.bpmn.event;html=1;verticalLabelPosition=bottom;labelBackgroundColor=#ffffff;verticalAlign=top;align=center;perimeter=ellipsePerimeter;outlineConnect=0;aspect=fixed;outline=catching;symbol=timer;fontSize=11;" parent="Xdgcz5oX3sqzTW6uyKRR-1" vertex="1">
          <mxGeometry x="1530" y="160" width="50" height="50" as="geometry" />
        </mxCell>
        <mxCell id="kc5MAHPjUGxLFdUptcbC-2" style="edgeStyle=orthogonalEdgeStyle;rounded=0;orthogonalLoop=1;jettySize=auto;html=1;" parent="Xdgcz5oX3sqzTW6uyKRR-1" source="ZUP1OzC_5cRaVZ1VSMOz-30" target="ZUP1OzC_5cRaVZ1VSMOz-32" edge="1">
          <mxGeometry relative="1" as="geometry" />
        </mxCell>
        <mxCell id="ZUP1OzC_5cRaVZ1VSMOz-30" value="&lt;font style=&quot;font-size: 11px;&quot;&gt;&lt;font style=&quot;font-size: 11px;&quot;&gt;Уведомление&lt;br&gt;для&amp;nbsp;подтверждения &lt;br&gt;приёма&lt;/font&gt;&amp;nbsp;&lt;/font&gt;" style="points=[[0.145,0.145,0],[0.5,0,0],[0.855,0.145,0],[1,0.5,0],[0.855,0.855,0],[0.5,1,0],[0.145,0.855,0],[0,0.5,0]];shape=mxgraph.bpmn.event;html=1;verticalLabelPosition=bottom;labelBackgroundColor=#ffffff;verticalAlign=top;align=center;perimeter=ellipsePerimeter;outlineConnect=0;aspect=fixed;outline=catching;symbol=message;fontSize=16;" parent="Xdgcz5oX3sqzTW6uyKRR-1" vertex="1">
          <mxGeometry x="1650" y="160" width="50" height="50" as="geometry" />
        </mxCell>
        <mxCell id="ZUP1OzC_5cRaVZ1VSMOz-32" value="&lt;font style=&quot;font-size: 11px;&quot;&gt;Пациент &lt;br&gt;подтвердил &lt;br&gt;запись?&lt;/font&gt;" style="points=[[0.25,0.25,0],[0.5,0,0],[0.75,0.25,0],[1,0.5,0],[0.75,0.75,0],[0.5,1,0],[0.25,0.75,0],[0,0.5,0]];shape=mxgraph.bpmn.gateway2;html=1;verticalLabelPosition=bottom;labelBackgroundColor=#ffffff;verticalAlign=top;align=center;perimeter=rhombusPerimeter;outlineConnect=0;outline=none;symbol=none;gwType=exclusive;" parent="Xdgcz5oX3sqzTW6uyKRR-1" vertex="1">
          <mxGeometry x="1750" y="160" width="50" height="50" as="geometry" />
        </mxCell>
        <mxCell id="kc5MAHPjUGxLFdUptcbC-8" style="edgeStyle=orthogonalEdgeStyle;rounded=0;orthogonalLoop=1;jettySize=auto;html=1;" parent="Xdgcz5oX3sqzTW6uyKRR-1" source="ZUP1OzC_5cRaVZ1VSMOz-54" target="fIHDFCNurajuqBFPYW8o-2" edge="1">
          <mxGeometry relative="1" as="geometry" />
        </mxCell>
        <mxCell id="ZUP1OzC_5cRaVZ1VSMOz-54" value="Подтвердить запись" style="points=[[0.25,0,0],[0.5,0,0],[0.75,0,0],[1,0.25,0],[1,0.5,0],[1,0.75,0],[0.75,1,0],[0.5,1,0],[0.25,1,0],[0,0.75,0],[0,0.5,0],[0,0.25,0]];shape=mxgraph.bpmn.task;whiteSpace=wrap;rectStyle=rounded;size=10;taskMarker=abstract;fontSize=11;" parent="Xdgcz5oX3sqzTW6uyKRR-1" vertex="1">
          <mxGeometry x="1930" y="65" width="120" height="80" as="geometry" />
        </mxCell>
        <mxCell id="kc5MAHPjUGxLFdUptcbC-7" style="edgeStyle=orthogonalEdgeStyle;rounded=0;orthogonalLoop=1;jettySize=auto;html=1;" parent="Xdgcz5oX3sqzTW6uyKRR-1" source="ZUP1OzC_5cRaVZ1VSMOz-34" target="ZUP1OzC_5cRaVZ1VSMOz-31" edge="1">
          <mxGeometry relative="1" as="geometry" />
        </mxCell>
        <mxCell id="ZUP1OzC_5cRaVZ1VSMOz-34" value="Отменить запись" style="points=[[0.25,0,0],[0.5,0,0],[0.75,0,0],[1,0.25,0],[1,0.5,0],[1,0.75,0],[0.75,1,0],[0.5,1,0],[0.25,1,0],[0,0.75,0],[0,0.5,0],[0,0.25,0]];shape=mxgraph.bpmn.task;whiteSpace=wrap;rectStyle=rounded;size=10;taskMarker=abstract;fontSize=11;" parent="Xdgcz5oX3sqzTW6uyKRR-1" vertex="1">
          <mxGeometry x="1930" y="250" width="120" height="80" as="geometry" />
        </mxCell>
        <mxCell id="kc5MAHPjUGxLFdUptcbC-3" style="edgeStyle=orthogonalEdgeStyle;rounded=0;orthogonalLoop=1;jettySize=auto;html=1;entryX=0;entryY=0.5;entryDx=0;entryDy=0;entryPerimeter=0;" parent="Xdgcz5oX3sqzTW6uyKRR-1" source="ZUP1OzC_5cRaVZ1VSMOz-32" target="ZUP1OzC_5cRaVZ1VSMOz-54" edge="1">
          <mxGeometry relative="1" as="geometry" />
        </mxCell>
        <mxCell id="kc5MAHPjUGxLFdUptcbC-4" style="edgeStyle=orthogonalEdgeStyle;rounded=0;orthogonalLoop=1;jettySize=auto;html=1;entryX=0;entryY=0.5;entryDx=0;entryDy=0;entryPerimeter=0;" parent="Xdgcz5oX3sqzTW6uyKRR-1" source="ZUP1OzC_5cRaVZ1VSMOz-32" target="ZUP1OzC_5cRaVZ1VSMOz-34" edge="1">
          <mxGeometry relative="1" as="geometry" />
        </mxCell>
        <mxCell id="kc5MAHPjUGxLFdUptcbC-5" value="Да" style="text;html=1;align=center;verticalAlign=middle;resizable=0;points=[];autosize=1;strokeColor=none;fillColor=none;" parent="Xdgcz5oX3sqzTW6uyKRR-1" vertex="1">
          <mxGeometry x="1880" y="80" width="40" height="30" as="geometry" />
        </mxCell>
        <mxCell id="kc5MAHPjUGxLFdUptcbC-6" value="Нет" style="text;html=1;align=center;verticalAlign=middle;resizable=0;points=[];autosize=1;strokeColor=none;fillColor=none;" parent="Xdgcz5oX3sqzTW6uyKRR-1" vertex="1">
          <mxGeometry x="1880" y="285" width="40" height="30" as="geometry" />
        </mxCell>
        <mxCell id="ZUP1OzC_5cRaVZ1VSMOz-31" value="&lt;font style=&quot;font-size: 11px;&quot;&gt;Запись отменена&lt;/font&gt;" style="points=[[0.145,0.145,0],[0.5,0,0],[0.855,0.145,0],[1,0.5,0],[0.855,0.855,0],[0.5,1,0],[0.145,0.855,0],[0,0.5,0]];shape=mxgraph.bpmn.event;html=1;verticalLabelPosition=bottom;labelBackgroundColor=#ffffff;verticalAlign=top;align=center;perimeter=ellipsePerimeter;outlineConnect=0;aspect=fixed;outline=end;symbol=terminate2;" parent="Xdgcz5oX3sqzTW6uyKRR-1" vertex="1">
          <mxGeometry x="2140" y="265" width="50" height="50" as="geometry" />
        </mxCell>
        <mxCell id="kc5MAHPjUGxLFdUptcbC-9" style="edgeStyle=orthogonalEdgeStyle;rounded=0;orthogonalLoop=1;jettySize=auto;html=1;" parent="Xdgcz5oX3sqzTW6uyKRR-1" source="fIHDFCNurajuqBFPYW8o-2" target="ZUP1OzC_5cRaVZ1VSMOz-49" edge="1">
          <mxGeometry relative="1" as="geometry" />
        </mxCell>
        <mxCell id="fIHDFCNurajuqBFPYW8o-2" value="В день&lt;br style=&quot;border-color: var(--border-color);&quot;&gt;записи на приём" style="points=[[0.145,0.145,0],[0.5,0,0],[0.855,0.145,0],[1,0.5,0],[0.855,0.855,0],[0.5,1,0],[0.145,0.855,0],[0,0.5,0]];shape=mxgraph.bpmn.event;html=1;verticalLabelPosition=bottom;labelBackgroundColor=#ffffff;verticalAlign=top;align=center;perimeter=ellipsePerimeter;outlineConnect=0;aspect=fixed;outline=catching;symbol=timer;fontSize=11;" parent="Xdgcz5oX3sqzTW6uyKRR-1" vertex="1">
          <mxGeometry x="2220" y="80" width="50" height="50" as="geometry" />
        </mxCell>
        <mxCell id="kc5MAHPjUGxLFdUptcbC-11" style="edgeStyle=orthogonalEdgeStyle;rounded=0;orthogonalLoop=1;jettySize=auto;html=1;dashed=1;" parent="Xdgcz5oX3sqzTW6uyKRR-1" source="ZUP1OzC_5cRaVZ1VSMOz-49" target="KiWvkSHsAHADNvKO4F4k-11" edge="1">
          <mxGeometry relative="1" as="geometry" />
        </mxCell>
        <mxCell id="fMASFYerF9BftcZRiww8-4" style="edgeStyle=orthogonalEdgeStyle;rounded=0;orthogonalLoop=1;jettySize=auto;html=1;" parent="Xdgcz5oX3sqzTW6uyKRR-1" source="ZUP1OzC_5cRaVZ1VSMOz-49" target="KiWvkSHsAHADNvKO4F4k-9" edge="1">
          <mxGeometry relative="1" as="geometry" />
        </mxCell>
        <mxCell id="ZUP1OzC_5cRaVZ1VSMOz-49" value="Прийти на приём" style="points=[[0.25,0,0],[0.5,0,0],[0.75,0,0],[1,0.25,0],[1,0.5,0],[1,0.75,0],[0.75,1,0],[0.5,1,0],[0.25,1,0],[0,0.75,0],[0,0.5,0],[0,0.25,0]];shape=mxgraph.bpmn.task;whiteSpace=wrap;rectStyle=rounded;size=10;taskMarker=abstract;fontSize=11;" parent="Xdgcz5oX3sqzTW6uyKRR-1" vertex="1">
          <mxGeometry x="2325" y="65" width="120" height="80" as="geometry" />
        </mxCell>
        <mxCell id="x_Vbej6sgpwdbN5jdDDm-2" value="&lt;span style=&quot;background-color: rgb(248, 249, 250);&quot;&gt;&lt;font style=&quot;font-size: 11px;&quot;&gt;Приём завершён&lt;/font&gt;&lt;br&gt;&lt;/span&gt;" style="points=[[0.145,0.145,0],[0.5,0,0],[0.855,0.145,0],[1,0.5,0],[0.855,0.855,0],[0.5,1,0],[0.145,0.855,0],[0,0.5,0]];shape=mxgraph.bpmn.event;html=1;verticalLabelPosition=bottom;labelBackgroundColor=#ffffff;verticalAlign=top;align=center;perimeter=ellipsePerimeter;outlineConnect=0;aspect=fixed;outline=end;symbol=terminate2;fontSize=11;" parent="Xdgcz5oX3sqzTW6uyKRR-1" vertex="1">
          <mxGeometry x="3110" y="80" width="50" height="50" as="geometry" />
        </mxCell>
        <mxCell id="DVVzU8dCABACLeWUi4pz-3" style="edgeStyle=orthogonalEdgeStyle;rounded=0;orthogonalLoop=1;jettySize=auto;html=1;entryX=0.5;entryY=0;entryDx=0;entryDy=0;entryPerimeter=0;" parent="Xdgcz5oX3sqzTW6uyKRR-1" source="ZUP1OzC_5cRaVZ1VSMOz-44" target="ZUP1OzC_5cRaVZ1VSMOz-23" edge="1">
          <mxGeometry relative="1" as="geometry" />
        </mxCell>
        <mxCell id="fMASFYerF9BftcZRiww8-5" style="edgeStyle=orthogonalEdgeStyle;rounded=0;orthogonalLoop=1;jettySize=auto;html=1;" parent="Xdgcz5oX3sqzTW6uyKRR-1" source="KiWvkSHsAHADNvKO4F4k-9" target="x_Vbej6sgpwdbN5jdDDm-2" edge="1">
          <mxGeometry relative="1" as="geometry" />
        </mxCell>
        <mxCell id="KiWvkSHsAHADNvKO4F4k-9" value="&lt;font style=&quot;font-size: 11px;&quot;&gt;Лечение назначено&lt;/font&gt;" style="points=[[0.145,0.145,0],[0.5,0,0],[0.855,0.145,0],[1,0.5,0],[0.855,0.855,0],[0.5,1,0],[0.145,0.855,0],[0,0.5,0]];shape=mxgraph.bpmn.event;html=1;verticalLabelPosition=bottom;labelBackgroundColor=#ffffff;verticalAlign=top;align=center;perimeter=ellipsePerimeter;outlineConnect=0;aspect=fixed;outline=catching;symbol=message;" parent="Xdgcz5oX3sqzTW6uyKRR-1" vertex="1">
          <mxGeometry x="2890" y="80" width="50" height="50" as="geometry" />
        </mxCell>
        <mxCell id="fMASFYerF9BftcZRiww8-6" style="edgeStyle=orthogonalEdgeStyle;rounded=0;orthogonalLoop=1;jettySize=auto;html=1;dashed=1;" parent="Xdgcz5oX3sqzTW6uyKRR-1" source="KiWvkSHsAHADNvKO4F4k-7" target="KiWvkSHsAHADNvKO4F4k-9" edge="1">
          <mxGeometry relative="1" as="geometry" />
        </mxCell>
        <mxCell id="xAhoAqHqhEQjAfvLh059-2" style="edgeStyle=orthogonalEdgeStyle;rounded=0;orthogonalLoop=1;jettySize=auto;html=1;entryX=0;entryY=0.5;entryDx=0;entryDy=0;entryPerimeter=0;" edge="1" parent="Xdgcz5oX3sqzTW6uyKRR-1" source="ZUP1OzC_5cRaVZ1VSMOz-41" target="ZUP1OzC_5cRaVZ1VSMOz-46">
          <mxGeometry relative="1" as="geometry" />
        </mxCell>
        <mxCell id="xAhoAqHqhEQjAfvLh059-3" style="edgeStyle=orthogonalEdgeStyle;rounded=0;orthogonalLoop=1;jettySize=auto;html=1;entryX=0.002;entryY=0.423;entryDx=0;entryDy=0;entryPerimeter=0;" edge="1" parent="Xdgcz5oX3sqzTW6uyKRR-1" source="ZUP1OzC_5cRaVZ1VSMOz-41" target="ZUP1OzC_5cRaVZ1VSMOz-44">
          <mxGeometry relative="1" as="geometry" />
        </mxCell>
      </root>
    </mxGraphModel>
  </diagram>
</mxfile>
